<?xml version="1.0" encoding="UTF-8"?>
<!-- Generator: visioncortex VTracer 0.6.3 -->
<svg version="1.1" xmlns="http://www.w3.org/2000/svg" width="163px" height="51.667px">
<path d="M0 0 C422.4 0 844.8 0 1280 0 C1280 422.4 1280 844.8 1280 1280 C857.6 1280 435.2 1280 0 1280 C0 857.6 0 435.2 0 0 Z " fill="#302939" transform="translate(0,0)"/>
<path d="M0 0 C1.45 -0 2.89 -0 4.34 -0.01 C7.35 -0.01 10.37 -0.01 13.38 0.01 C17.23 0.02 21.07 0.01 24.91 -0 C27.89 -0.01 30.87 -0.01 33.85 -0 C35.27 -0 36.68 -0 38.1 -0.01 C48.04 -0.05 57.56 0.02 65 7.4 C66.94 9.72 68.73 12.13 70.5 14.59 C71.56 16.02 72.62 17.46 73.68 18.89 C74.22 19.64 74.77 20.38 75.33 21.14 C78.07 24.84 80.88 28.49 83.69 32.15 C88.84 38.87 93.94 45.62 99 52.4 C105.02 60.46 111.06 68.51 117.22 76.47 C120.45 80.67 123.64 84.9 126.81 89.15 C131.07 94.84 135.36 100.51 139.69 106.15 C145.55 113.79 151.33 121.49 157.09 129.2 C161.53 135.13 166 141.02 170.5 146.9 C175.71 153.7 180.87 160.53 186 167.4 C189.99 172.74 193.99 178.07 198 183.4 C198.58 184.18 199.17 184.95 199.77 185.76 C201.55 188.12 203.34 190.48 205.12 192.84 C205.68 193.58 206.24 194.32 206.81 195.08 C207.33 195.76 207.85 196.44 208.38 197.14 C208.84 197.75 209.3 198.35 209.77 198.98 C210.96 200.54 210.96 200.54 213 201.4 C213 202.06 213 202.72 213 203.4 C216.97 199.62 220.25 195.62 223.5 191.21 C224.01 190.52 224.53 189.83 225.06 189.11 C229.53 183.09 233.91 176.99 238.29 170.9 C242.2 165.46 246.24 160.14 250.36 154.85 C255.42 148.28 260.28 141.56 265.19 134.87 C268.12 130.88 271.06 126.89 274 122.9 C277.53 118.12 281.05 113.33 284.57 108.54 C290.03 101.11 295.51 93.7 301.06 86.34 C305.28 80.74 309.41 75.09 313.5 69.4 C318.07 63.05 322.7 56.75 327.41 50.51 C330.71 46.13 333.97 41.74 337.21 37.33 C338.99 34.92 340.76 32.51 342.54 30.11 C344.8 27.03 347.05 23.95 349.27 20.85 C350.31 19.43 351.34 18.01 352.38 16.59 C352.83 15.95 353.28 15.31 353.74 14.65 C359.24 7.16 365.86 2.36 375 0.4 C380.14 -0.05 385.25 -0.07 390.4 -0.07 C391.89 -0.08 393.38 -0.09 394.87 -0.09 C397.97 -0.11 401.08 -0.11 404.18 -0.1 C408.14 -0.1 412.09 -0.13 416.05 -0.17 C419.12 -0.19 422.18 -0.2 425.25 -0.19 C426.71 -0.19 428.17 -0.2 429.62 -0.22 C439.67 -0.33 447.6 0.75 455.44 7.5 C456.21 8.47 456.21 8.47 457 9.46 C457.8 10.44 457.8 10.44 458.62 11.43 C462.98 17.66 463.15 24 463.13 31.43 C463.13 32.23 463.14 33.02 463.14 33.84 C463.14 36.52 463.14 39.19 463.14 41.86 C463.14 43.79 463.15 45.72 463.15 47.66 C463.16 52.97 463.16 58.28 463.16 63.6 C463.16 69.33 463.17 75.06 463.18 80.79 C463.19 93.32 463.2 105.85 463.2 118.38 C463.2 126.21 463.21 134.03 463.21 141.85 C463.22 163.51 463.23 185.17 463.24 206.82 C463.24 208.22 463.24 209.62 463.24 211.02 C463.24 212.43 463.24 213.83 463.24 215.23 C463.24 218.05 463.24 220.86 463.24 223.68 C463.24 224.73 463.24 224.73 463.24 225.8 C463.24 248.43 463.26 271.07 463.28 293.71 C463.31 317.65 463.32 341.59 463.32 365.53 C463.32 378.57 463.33 391.62 463.35 404.67 C463.36 415.78 463.37 426.89 463.36 437.99 C463.36 443.66 463.36 449.33 463.37 455 C463.38 460.19 463.38 465.38 463.37 470.57 C463.37 472.44 463.37 474.32 463.38 476.2 C463.47 497.33 463.47 497.33 458.2 505.02 C457.24 505.92 457.24 505.92 456.25 506.84 C455.62 507.45 454.98 508.07 454.33 508.71 C446.82 514.16 439.6 513.84 430.6 513.8 C429.19 513.8 427.79 513.8 426.38 513.81 C423.44 513.81 420.51 513.8 417.57 513.79 C413.82 513.77 410.07 513.78 406.33 513.8 C403.43 513.81 400.53 513.81 397.63 513.8 C396.25 513.8 394.86 513.8 393.48 513.81 C384.2 513.84 376.13 513.64 368.75 507.34 C367.81 506.58 367.81 506.58 366.86 505.8 C360.91 498.12 360.42 489.7 360.48 480.31 C360.47 478.38 360.47 478.38 360.46 476.41 C360.44 472.87 360.44 469.32 360.45 465.78 C360.46 461.94 360.44 458.11 360.42 454.28 C360.4 447.64 360.39 441.01 360.39 434.37 C360.39 424.78 360.37 415.19 360.35 405.6 C360.31 390.04 360.28 374.48 360.27 358.92 C360.26 343.8 360.24 328.69 360.21 313.58 C360.21 312.64 360.2 311.71 360.2 310.75 C360.19 306.07 360.18 301.4 360.17 296.72 C360.09 257.95 360.04 219.17 360 180.4 C357.17 183.2 354.45 185.93 352.05 189.11 C351.54 189.79 351.03 190.47 350.5 191.17 C349.96 191.89 349.43 192.6 348.88 193.34 C347.72 194.86 346.56 196.39 345.41 197.91 C344.83 198.67 344.26 199.43 343.67 200.21 C341.27 203.36 338.83 206.48 336.38 209.59 C335.93 210.15 335.49 210.71 335.03 211.3 C334.13 212.43 333.24 213.56 332.35 214.69 C326.18 222.51 320.03 230.33 313.97 238.23 C308.63 245.2 303.22 252.12 297.83 259.05 C296.01 261.39 294.19 263.72 292.38 266.06 C287.02 272.96 281.65 279.85 276.25 286.71 C272.79 291.11 269.35 295.52 265.94 299.96 C265.32 300.76 265.32 300.76 264.69 301.58 C262.66 304.23 260.63 306.88 258.61 309.54 C253.41 316.35 248.09 323.05 242.64 329.67 C239.96 332.94 237.36 336.25 234.85 339.66 C231.48 344.17 228.37 347.38 223 349.4 C213.33 350.57 205.2 350.08 196.97 344.25 C193.19 340.9 190.41 336.81 187.5 332.71 C186.26 331 185.02 329.28 183.78 327.57 C183.15 326.71 182.53 325.84 181.88 324.95 C179 321.04 176 317.22 173 313.4 C167.52 306.41 162.21 299.31 156.97 292.15 C152.95 286.67 148.85 281.27 144.69 275.9 C141.25 271.44 137.88 266.91 134.5 262.4 C130.24 256.71 125.97 251.02 121.62 245.4 C118.68 241.59 115.76 237.76 112.88 233.9 C108.68 228.29 104.44 222.72 100.19 217.15 C92.64 207.26 85.16 197.31 77.72 187.34 C73.41 181.58 69.06 175.86 64.69 170.15 C58.4 161.94 52.19 153.68 46 145.4 C38.53 135.41 31.06 125.44 23.43 115.57 C20.72 112.03 18.04 108.47 15.38 104.9 C9.87 97.53 4.3 90.22 -1.28 82.91 C-5.46 77.43 -9.61 71.94 -13.72 66.42 C-15.53 64.03 -17.35 61.65 -19.18 59.29 C-25.18 51.55 -31.1 43.89 -36 35.4 C-36.38 34.75 -36.76 34.09 -37.14 33.42 C-39.32 28.29 -38.79 22.6 -36.94 17.45 C-33.06 9.73 -28.33 4.97 -20.29 1.85 C-13.66 -0.32 -6.9 -0.03 0 0 Z " fill="#F8F3F4" transform="translate(427,573.6015625)"/>
<path d="M0 0 C2.42 0.69 4.12 1.48 6.25 2.79 C32.06 17.46 62.13 23.58 91.62 24.55 C94.56 24.73 94.56 24.73 95.56 25.73 C95.52 27.4 95.47 29.07 95.39 30.74 C94.81 46.08 98.52 60.81 104.69 74.78 C119.43 108.79 126.71 146.86 121.83 183.69 C121.39 187.03 120.97 190.38 120.56 193.73 C119.9 193.73 119.24 193.73 118.56 193.73 C118.61 194.45 118.66 195.16 118.72 195.9 C118.2 205.04 109.65 214.85 103.24 220.93 C97.67 225.65 92.4 228.35 85.56 230.73 C84.5 231.18 83.44 231.63 82.36 232.09 C69.14 237.55 52.91 242.73 38.56 242.73 C38.23 243.39 37.9 244.05 37.56 244.73 C35.5 245.12 33.46 245.24 31.37 245.39 C30.47 245.56 30.47 245.56 29.56 245.73 C29.23 246.39 28.9 247.05 28.56 247.73 C27.9 247.4 27.24 247.07 26.56 246.73 C26.23 247.39 25.9 248.05 25.56 248.73 C24.9 248.4 24.24 248.07 23.56 247.73 C23.23 248.39 22.9 249.05 22.56 249.73 C20.89 250.06 19.23 250.4 17.56 250.73 C17.23 251.39 16.9 252.05 16.56 252.73 C14.56 253.41 12.56 254.08 10.56 254.73 C9.9 255.39 9.24 256.05 8.56 256.73 C4.93 258.75 1.72 260.45 -2.44 260.73 C-4.85 259.62 -6.91 258.51 -9.13 257.11 C-10.39 256.36 -11.64 255.61 -12.9 254.86 C-13.82 254.31 -13.82 254.31 -14.75 253.75 C-31.15 243.9 -50.64 241 -69.09 236.93 C-87.82 232.55 -104.23 222.61 -115.19 206.54 C-131.13 179.8 -127.75 145.75 -120.86 116.7 C-117.48 103.45 -113.14 90.56 -108.44 77.73 C-107.16 74.19 -105.89 70.65 -104.63 67.11 C-104.19 65.92 -104.19 65.92 -103.75 64.7 C-100.09 54.45 -99.13 44.71 -98.88 33.88 C-98.83 32.54 -98.83 32.54 -98.79 31.17 C-98.77 30.36 -98.75 29.56 -98.73 28.73 C-98.44 26.73 -98.44 26.73 -96.44 24.73 C-93.45 24.52 -90.5 24.41 -87.5 24.36 C-63.68 23.53 -38.79 19.94 -17.44 8.73 C-16.63 8.31 -15.83 7.88 -15 7.45 C-11.56 5.59 -8.33 3.68 -5.19 1.36 C-2.44 -0.27 -2.44 -0.27 0 0 Z "/>
<path d="M0 0 C2.25 1.09 3.75 2.35 5.57 4.07 C17.83 15.14 31.3 20.45 46.94 24.95 C47.8 25.2 48.66 25.45 49.54 25.7 C55.62 27.43 61.61 28.76 67.88 29.57 C68.84 29.7 69.81 29.82 70.8 29.95 C89.05 32.01 107.59 31.72 125.94 31.95 C127.1 36.66 126.52 38.49 124.13 42.76 C117.85 54.05 116.63 68.02 120.04 80.52 C121.47 85.07 123.19 89.5 124.94 93.95 C126.12 97.07 127.28 100.19 128.44 103.32 C128.73 104.11 129.03 104.9 129.33 105.71 C141.76 139.43 151.93 180.11 143.94 215.95 C143.57 217.81 143.57 217.81 143.2 219.71 C138.35 242.72 124.99 261.51 105.52 274.5 C91.95 283.28 77.05 286.53 61.44 289.93 C34 295.75 34 295.75 10.94 310.95 C10.28 310.95 9.62 310.95 8.94 310.95 C8.28 312.27 7.62 313.59 6.94 314.95 C6.28 314.95 5.62 314.95 4.94 314.95 C4.65 315.54 4.36 316.14 4.07 316.76 C2.94 318.95 2.94 318.95 0.94 321.95 C-3.36 320.58 -5.35 318.79 -8.18 315.32 C-23.31 297.96 -44.59 293.42 -66.18 289.01 C-92.28 283.61 -117.2 271.39 -132.43 248.61 C-148.46 222.34 -151.16 191.83 -146.06 161.95 C-145.92 161.14 -145.79 160.34 -145.65 159.51 C-141.2 133.4 -132.75 108.67 -123.15 84.02 C-118.23 70.18 -120.21 53.56 -126.21 40.41 C-127.14 38.58 -128.1 36.76 -129.06 34.95 C-129.06 33.96 -129.06 32.97 -129.06 31.95 C-127.82 31.93 -126.58 31.92 -125.31 31.9 C-92.53 31.82 -92.53 31.82 -60.06 27.95 C-59.15 27.78 -58.25 27.6 -57.32 27.43 C-37.13 23.47 -19.02 16.36 -4.25 1.57 C-2.06 -0.05 -2.06 -0.05 0 0 Z M-7.06 32.07 C-25.19 43.92 -44.37 48.52 -65.58 51.59 C-67.58 51.88 -69.59 52.2 -71.59 52.52 C-77.29 53.22 -83.02 53.3 -88.76 53.46 C-89.67 53.5 -90.58 53.53 -91.52 53.57 C-92.34 53.59 -93.17 53.62 -94.01 53.64 C-96.28 53.77 -96.28 53.77 -98.06 55.95 C-98.36 57.89 -98.36 57.89 -98.33 60.14 C-98.35 60.99 -98.37 61.84 -98.38 62.72 C-98.41 64.1 -98.41 64.1 -98.43 65.51 C-99.03 81.68 -103.24 94.79 -109.2 109.78 C-113.71 121.27 -117.04 132.99 -120.06 144.95 C-120.55 146.84 -120.55 146.84 -121.05 148.78 C-122.78 156.13 -123.77 163.59 -124.75 171.07 C-124.88 172.06 -125.01 173.05 -125.15 174.07 C-127.78 195.51 -125.86 219.76 -113.18 237.95 C-111.84 239.64 -110.47 241.31 -109.06 242.95 C-108.47 243.65 -107.87 244.35 -107.26 245.08 C-93.26 260.33 -74.01 265.69 -54.41 269.48 C-35.63 273.18 -18.11 279.25 -2.06 289.95 C3.36 289.51 7.73 286.78 12.13 283.76 C14.94 281.95 14.94 281.95 17.94 281.95 C17.94 281.29 17.94 280.63 17.94 279.95 C19.92 279.62 21.9 279.29 23.94 278.95 C23.94 278.29 23.94 277.63 23.94 276.95 C24.93 277.28 25.92 277.61 26.94 277.95 C26.94 277.29 26.94 276.63 26.94 275.95 C27.93 276.28 28.92 276.61 29.94 276.95 C29.94 276.29 29.94 275.63 29.94 274.95 C32.91 274.62 35.88 274.29 38.94 273.95 C38.94 273.29 38.94 272.63 38.94 271.95 C39.98 271.82 39.98 271.82 41.05 271.68 C56.44 269.56 71.65 266.12 85.94 259.95 C86.63 259.67 87.32 259.39 88.04 259.11 C102.67 253.17 111.89 243.25 118.28 228.99 C119.15 226.67 119.15 226.67 118.94 222.95 C119.6 222.62 120.26 222.29 120.94 221.95 C121.51 219.74 121.51 219.74 121.79 217.05 C121.99 215.54 121.99 215.54 122.18 213.99 C122.31 212.9 122.44 211.81 122.57 210.7 C122.7 209.59 122.83 208.48 122.96 207.35 C123.81 199.82 124.43 192.52 123.94 184.95 C123.88 183.81 123.88 183.81 123.81 182.65 C122.01 152.42 113.07 123.88 102.11 95.83 C100.29 91.12 98.88 86.43 97.75 81.51 C97.58 80.74 97.4 79.98 97.22 79.19 C95.74 72.12 95.64 65.32 95.9 58.13 C95.91 57.08 95.93 56.03 95.94 54.95 C94.08 53.08 90.74 53.76 88.25 53.7 C63.96 52.57 40.08 47.1 17.63 37.88 C16.86 37.57 16.09 37.25 15.29 36.92 C11.58 35.33 8.38 33.63 5.15 31.2 C0.09 27.64 -2.35 28.84 -7.06 32.07 Z " fill="#302939" transform="translate(640.05859375,193.0546875)"/>
<path d="M0 0 C1.38 -0.01 2.76 -0.01 4.14 -0.02 C7.03 -0.04 9.92 -0.04 12.8 -0.03 C16.48 -0.03 20.16 -0.06 23.83 -0.1 C26.68 -0.12 29.53 -0.13 32.38 -0.12 C34.39 -0.12 36.4 -0.15 38.41 -0.17 C47.08 -0.11 53.26 1.17 59.69 7.19 C67.19 14.95 67.29 23.79 67.24 34.03 C67.24 35.38 67.25 36.74 67.26 38.1 C67.27 41.77 67.26 45.45 67.25 49.12 C67.25 52.97 67.25 56.82 67.26 60.67 C67.26 67.14 67.26 73.61 67.24 80.07 C67.23 87.54 67.23 95.01 67.25 102.47 C67.26 108.89 67.26 115.32 67.26 121.74 C67.25 125.57 67.25 129.4 67.26 133.23 C67.27 136.83 67.26 140.43 67.25 144.03 C67.24 145.98 67.25 147.92 67.26 149.87 C67.19 159.17 65.72 164.98 59.4 171.96 C54.39 176.84 49.48 177.59 42.74 177.63 C41.51 177.64 40.27 177.65 39 177.66 C37.65 177.66 36.31 177.67 34.96 177.67 C33.57 177.68 32.19 177.68 30.8 177.69 C27.89 177.7 24.98 177.71 22.07 177.71 C18.36 177.71 14.65 177.74 10.94 177.77 C8.08 177.79 5.21 177.79 2.34 177.79 C0.98 177.8 -0.39 177.8 -1.76 177.82 C-11.06 177.9 -19.09 177.74 -26.4 171.28 C-27.02 170.75 -27.65 170.22 -28.29 169.68 C-34.57 162.22 -34.73 155.36 -34.68 145.96 C-34.69 144.61 -34.7 143.25 -34.71 141.9 C-34.73 138.24 -34.73 134.58 -34.72 130.92 C-34.71 127.85 -34.72 124.79 -34.73 121.73 C-34.75 114.49 -34.74 107.26 -34.72 100.03 C-34.71 92.59 -34.72 85.14 -34.76 77.7 C-34.78 71.3 -34.79 64.89 -34.78 58.48 C-34.78 54.66 -34.78 50.84 -34.8 47.02 C-34.82 43.43 -34.81 39.84 -34.79 36.24 C-34.78 34.31 -34.8 32.38 -34.81 30.45 C-34.72 21.77 -33.19 14.82 -27.16 8.33 C-18.82 0.39 -11.13 0 0 0 Z " fill="#F9F4F5" transform="translate(423.1484375,909.53125)"/>
<path d="M0 0 C2.25 1.09 3.75 2.35 5.57 4.07 C17.83 15.14 31.3 20.45 46.94 24.95 C47.8 25.2 48.66 25.45 49.54 25.7 C55.62 27.43 61.61 28.76 67.88 29.57 C68.84 29.7 69.81 29.82 70.8 29.95 C89.05 32.01 107.59 31.72 125.94 31.95 C127.1 36.66 126.52 38.49 124.13 42.76 C117.85 54.05 116.63 68.02 120.04 80.52 C121.47 85.07 123.19 89.5 124.94 93.95 C126.12 97.07 127.28 100.19 128.44 103.32 C128.73 104.11 129.03 104.9 129.33 105.71 C141.76 139.43 151.93 180.11 143.94 215.95 C143.57 217.81 143.57 217.81 143.2 219.71 C138.35 242.72 124.99 261.51 105.52 274.5 C91.95 283.28 77.05 286.53 61.44 289.93 C34 295.75 34 295.75 10.94 310.95 C10.28 310.95 9.62 310.95 8.94 310.95 C8.28 312.27 7.62 313.59 6.94 314.95 C6.28 314.95 5.62 314.95 4.94 314.95 C4.65 315.54 4.36 316.14 4.07 316.76 C2.94 318.95 2.94 318.95 0.94 321.95 C-3.36 320.58 -5.35 318.79 -8.18 315.32 C-23.31 297.96 -44.59 293.42 -66.18 289.01 C-92.28 283.61 -117.2 271.39 -132.43 248.61 C-148.46 222.34 -151.16 191.83 -146.06 161.95 C-145.92 161.14 -145.79 160.34 -145.65 159.51 C-141.2 133.4 -132.75 108.67 -123.15 84.02 C-118.23 70.18 -120.21 53.56 -126.21 40.41 C-127.14 38.58 -128.1 36.76 -129.06 34.95 C-129.06 33.96 -129.06 32.97 -129.06 31.95 C-127.82 31.93 -126.58 31.92 -125.31 31.9 C-92.53 31.82 -92.53 31.82 -60.06 27.95 C-59.15 27.78 -58.25 27.6 -57.32 27.43 C-37.13 23.47 -19.02 16.36 -4.25 1.57 C-2.06 -0.05 -2.06 -0.05 0 0 Z M-6.06 16.63 C-32.51 35.97 -65.36 40.06 -97.25 41.18 C-98.22 41.22 -99.19 41.25 -100.19 41.29 C-102.02 41.35 -103.85 41.4 -105.69 41.43 C-107.82 41.49 -109.94 41.71 -112.06 41.95 C-112.72 42.94 -113.38 43.93 -114.06 44.95 C-113.62 47.31 -113.62 47.31 -112.68 49.95 C-111.13 55.62 -110.74 60.86 -110.75 66.7 C-110.74 67.49 -110.74 68.28 -110.73 69.09 C-110.87 80.87 -115.52 91.85 -119.59 102.75 C-134.86 143.71 -147.38 190.63 -129.9 232.73 C-121.55 250.54 -105.54 265.86 -87.06 272.95 C-75.84 276.84 -64.39 279.64 -52.81 282.19 C-45.75 283.75 -38.9 285.58 -32.06 287.95 C-31.23 288.22 -30.4 288.49 -29.55 288.77 C-19 292.54 -9.22 299.37 -1.06 306.95 C1.77 305.11 4.53 303.27 7.19 301.18 C23.73 288.37 42.77 283.56 62.89 279.46 C86.97 274.48 108.18 265.29 122.75 244.34 C124.26 241.92 125.63 239.47 126.94 236.95 C127.31 236.26 127.67 235.58 128.05 234.88 C142.59 205.37 136.45 168.45 128.94 137.95 C128.77 137.25 128.61 136.55 128.43 135.83 C125.3 122.8 120.67 110.27 116 97.73 C115.69 96.88 115.38 96.04 115.05 95.17 C114.46 93.57 113.86 91.98 113.25 90.39 C110.18 82.2 108.58 74.97 108.63 66.2 C108.63 65.32 108.63 64.45 108.63 63.55 C108.71 57.41 109.54 51.92 111.48 46.06 C111.63 45.36 111.78 44.67 111.94 43.95 C109.08 41.09 106.94 41.57 102.94 41.38 C102.24 41.35 101.53 41.31 100.81 41.27 C99.3 41.2 97.8 41.12 96.29 41.06 C92.38 40.87 88.47 40.65 84.56 40.43 C83.8 40.39 83.03 40.35 82.25 40.31 C66.91 39.45 52.75 37.08 37.94 32.95 C36.85 32.66 35.77 32.38 34.64 32.08 C22.67 28.59 11.25 21.73 1.48 14.08 C-1.65 11.77 -3.27 14.54 -6.06 16.63 Z " fill="#F9F4F5" transform="translate(640.05859375,193.0546875)"/>
<path d="M0 0 C2.18 1 2.18 1 4.88 2.56 C5.87 3.12 6.87 3.68 7.89 4.25 C9.43 5.12 9.43 5.12 11 6 C34.45 18.97 62.88 24.87 89.53 25.62 C93.43 25.76 96.47 26.31 100 28 C99.95 29.07 99.91 30.13 99.86 31.23 C99.23 51.87 104.93 69.21 112.38 88.2 C115.17 95.34 117.55 102.49 119.46 109.92 C119.84 111.39 120.23 112.86 120.63 114.32 C129 145.19 133.88 181.88 117.81 211.12 C105.08 231.77 86.2 239.94 63.5 245.43 C60.26 246.17 57.01 246.82 53.76 247.47 C36.45 250.89 19.07 256.64 4.82 267.4 C2 269 2 269 -0.46 268.49 C-1.3 268 -2.14 267.51 -3 267 C-4.04 266.42 -5.09 265.83 -6.16 265.23 C-7.32 264.55 -8.47 263.87 -9.62 263.19 C-25.22 254.16 -41.34 249.69 -58.91 246.22 C-71.94 243.64 -84.81 240.01 -95.81 232.25 C-96.43 231.82 -97.04 231.4 -97.68 230.96 C-112.94 220.13 -122.48 205.1 -125.77 186.68 C-125.93 185.73 -126.09 184.79 -126.25 183.81 C-126.42 182.89 -126.6 181.96 -126.77 181.01 C-129.02 167.97 -128.12 155.33 -126.03 142.37 C-125.69 140.24 -125.36 138.1 -125.04 135.96 C-123.96 128.97 -122.68 122.12 -120.66 115.32 C-119.96 112.96 -119.96 112.96 -119.47 110.34 C-118.97 107.83 -118.11 105.86 -117 103.56 C-115.36 100.01 -114.6 96.88 -114 93 C-113 91 -112 89 -111 87 C-110.47 85.34 -109.98 83.67 -109.5 82 C-108.38 78.06 -106.87 74.65 -105 71 C-104.65 69.34 -104.32 67.67 -104 66 C-103.75 65.18 -103.5 64.36 -103.25 63.51 C-100.71 54.65 -100.78 46.21 -101.02 37.05 C-101.06 35.54 -101.06 35.54 -101.09 33.99 C-101.12 33.08 -101.15 32.16 -101.18 31.22 C-101 29 -101 29 -99 27 C-94.31 25.61 -89.36 25.78 -84.5 25.62 C-75.84 25.3 -67.4 24.37 -58.84 23.02 C-54.82 22.38 -51.07 22 -47 22 C-44.66 21.01 -42.33 20 -40 19 C-38.24 18.75 -38.24 18.75 -36.44 18.5 C-32.72 17.96 -30.28 16.78 -27 15 C-25.34 14.32 -23.67 13.66 -22 13 C-14.38 9.8 -8 6.73 -2 1 C-1.34 0.67 -0.68 0.34 0 0 Z M-6 7.12 C-24.13 18.98 -43.31 23.58 -64.52 26.64 C-66.53 26.93 -68.53 27.25 -70.53 27.58 C-76.23 28.27 -81.96 28.36 -87.7 28.52 C-88.61 28.55 -89.52 28.59 -90.46 28.62 C-91.28 28.65 -92.11 28.67 -92.96 28.7 C-95.22 28.83 -95.22 28.83 -97 31 C-97.3 32.95 -97.3 32.95 -97.27 35.19 C-97.29 36.04 -97.31 36.9 -97.33 37.78 C-97.35 39.16 -97.35 39.16 -97.38 40.56 C-97.97 56.73 -102.18 69.85 -108.14 84.84 C-112.65 96.33 -115.98 108.04 -119 120 C-119.49 121.9 -119.49 121.9 -119.99 123.83 C-121.72 131.18 -122.71 138.64 -123.69 146.12 C-123.82 147.12 -123.95 148.11 -124.09 149.13 C-126.72 170.57 -124.81 194.81 -112.12 213 C-110.78 214.69 -109.41 216.36 -108 218 C-107.41 218.7 -106.81 219.41 -106.2 220.13 C-92.21 235.39 -72.95 240.75 -53.35 244.54 C-34.57 248.23 -17.05 254.3 -1 265 C4.42 264.56 8.79 261.83 13.19 258.81 C16 257 16 257 19 257 C19 256.34 19 255.68 19 255 C20.98 254.67 22.96 254.34 25 254 C25 253.34 25 252.68 25 252 C25.99 252.33 26.98 252.66 28 253 C28 252.34 28 251.68 28 251 C28.99 251.33 29.98 251.66 31 252 C31 251.34 31 250.68 31 250 C33.97 249.67 36.94 249.34 40 249 C40 248.34 40 247.68 40 247 C41.04 246.87 41.04 246.87 42.11 246.74 C57.49 244.61 72.71 241.18 87 235 C87.69 234.72 88.38 234.45 89.09 234.16 C103.72 228.22 112.95 218.3 119.34 204.04 C120.21 201.72 120.21 201.72 120 198 C120.66 197.67 121.32 197.34 122 197 C122.57 194.79 122.57 194.79 122.85 192.11 C123.05 190.59 123.05 190.59 123.24 189.04 C123.37 187.95 123.5 186.87 123.62 185.75 C123.76 184.64 123.89 183.54 124.02 182.4 C124.87 174.88 125.48 167.57 125 160 C124.94 158.86 124.94 158.86 124.87 157.7 C123.07 127.48 114.13 98.93 103.17 70.88 C101.35 66.18 99.94 61.48 98.81 56.56 C98.64 55.8 98.46 55.03 98.28 54.24 C96.8 47.18 96.7 40.37 96.96 33.18 C96.97 32.13 96.99 31.08 97 30 C95.14 28.14 91.8 28.82 89.31 28.75 C65.02 27.62 41.14 22.16 18.69 12.94 C17.92 12.62 17.15 12.31 16.35 11.98 C12.64 10.39 9.43 8.69 6.21 6.25 C1.15 2.7 -1.29 3.89 -6 7.12 Z " fill="#F8F3F4" transform="translate(639,218)"/>
</svg>
