<svg version="1.1" id="Layer_1" xmlns="http://www.w3.org/2000/svg" xmlns:xlink="http://www.w3.org/1999/xlink" x="0px" y="0px"
	 width="100%" viewBox="0 0 900 900" enable-background="new 0 0 900 900" xml:space="preserve">
<path fill="#000000" opacity="1.000000" stroke="none" 
	d="
M524.000000,901.000000 
	C349.333344,901.000000 175.166672,901.000000 1.000000,901.000000 
	C1.000000,601.000000 1.000000,301.000000 1.000000,1.000000 
	C301.000000,1.000000 601.000000,1.000000 901.000000,1.000000 
	C901.000000,301.000000 901.000000,601.000000 901.000000,901.000000 
	C775.500000,901.000000 650.000000,901.000000 524.000000,901.000000 
M533.035095,436.771149 
	C530.164612,440.892700 527.388245,445.083801 524.403809,449.121155 
	C518.394897,457.250031 512.259705,465.285431 506.203033,473.379150 
	C503.407440,477.114899 500.695404,480.913086 497.906952,484.654236 
	C494.305511,489.486206 490.599426,494.241455 487.060455,499.118317 
	C483.439240,504.108459 480.071625,509.284271 476.401825,514.237183 
	C471.173004,521.294128 465.720245,528.184875 460.460693,535.219543 
	C457.533020,539.135254 454.803162,543.198975 451.916382,547.292053 
	C447.979340,541.959229 444.610626,537.345947 441.189575,532.771851 
	C432.177917,520.722717 423.200745,508.647156 414.102539,496.663574 
	C404.416870,483.906128 394.536255,471.296387 384.880554,458.516571 
	C379.312469,451.146973 374.179565,443.446747 368.559601,436.118652 
	C363.035797,428.915955 356.446594,422.438293 351.612427,414.824951 
	C346.924286,407.441559 340.433502,405.206238 332.688721,405.066315 
	C319.527191,404.828522 306.354004,404.808472 293.194183,405.091125 
	C287.183380,405.220245 281.530609,406.361481 277.863892,412.484406 
	C274.755432,417.675171 273.133148,425.872009 276.321167,430.632751 
	C280.725189,437.209320 285.625061,443.456879 290.383423,449.792175 
	C294.568726,455.364471 298.882355,460.840210 303.083252,466.400970 
	C308.153473,473.112457 313.042603,479.964417 318.235992,486.578217 
	C323.302399,493.030304 328.804718,499.141449 333.835297,505.619965 
	C338.421265,511.525909 342.566406,517.771851 347.020416,523.783081 
	C356.411530,536.457397 365.891022,549.066101 375.308777,561.720703 
	C383.008179,572.066345 390.580597,582.507874 398.374512,592.781555 
	C406.335938,603.276062 414.569458,613.563965 422.549377,624.044739 
	C428.211304,631.481140 433.138672,639.551453 439.387543,646.437073 
	C442.905334,650.313293 448.418671,652.423401 454.282898,651.310059 
	C461.299530,649.978027 466.011627,646.272949 469.960724,639.942871 
	C475.362549,631.284363 482.425323,623.654968 488.854431,615.647339 
	C492.474518,611.138367 496.419403,606.883606 499.925262,602.290955 
	C508.375977,591.220581 516.568115,579.952698 525.029968,568.891113 
	C531.674316,560.205383 538.553223,551.698730 545.353821,543.133057 
	C548.308960,539.410828 551.328979,535.740173 555.059631,531.131897 
	C555.059631,533.702942 555.059753,534.852844 555.059631,536.002747 
	C555.052429,583.166565 555.044006,630.330322 555.038452,677.494141 
	C555.035706,700.992676 554.979431,724.491516 555.068115,747.989685 
	C555.101929,756.942505 561.980103,767.027100 572.709717,766.229004 
	C586.300232,765.218018 600.022583,766.007141 613.687683,765.933533 
	C615.081360,765.926025 616.636597,765.622681 617.836914,764.954102 
	C625.193054,760.856812 627.983887,754.241821 627.983093,746.108154 
	C627.974182,653.947083 627.982361,561.786011 627.984924,469.624969 
	C627.985291,454.625885 628.265259,439.619598 627.885559,424.630066 
	C627.599182,413.324432 621.692444,405.144501 609.707458,405.030853 
	C595.876221,404.899689 582.036743,404.756317 568.212646,405.098236 
	C560.638855,405.285522 554.163452,407.218994 549.755493,415.053802 
	C545.442627,422.719635 538.919983,429.142212 533.035095,436.771149 
M337.035522,764.988586 
	C342.743561,761.832214 346.708740,756.731140 346.791473,750.565369 
	C347.202545,719.933777 347.091492,689.293030 346.921722,658.656921 
	C346.873627,649.977478 338.947418,640.355347 328.326996,640.877991 
	C315.536896,641.507446 302.686249,640.819580 289.876007,641.191406 
	C286.909607,641.277466 283.401459,642.672241 281.184662,644.639221 
	C275.839447,649.382019 273.975433,655.884155 273.986450,662.984497 
	C274.028564,690.124878 273.983032,717.265503 274.066101,744.405701 
	C274.075470,747.466553 274.439941,750.579895 275.083099,753.573669 
	C276.295380,759.217041 283.392120,765.927124 288.070679,765.947388 
	C303.222290,766.013123 318.374390,765.990662 333.526154,765.947998 
	C334.429199,765.945496 335.330933,765.468018 337.035522,764.988586 
M539.526917,201.064682 
	C534.085938,189.569794 532.700012,178.156723 539.600464,166.603592 
	C540.792114,164.608551 540.682617,161.836411 541.461792,158.010742 
	C527.583496,158.010742 514.803833,158.628296 502.119598,157.794220 
	C493.625519,157.235687 484.863739,155.668030 476.955933,152.636734 
	C468.249603,149.299332 459.627472,144.927551 453.145874,137.658020 
	C450.960266,135.206696 449.267975,135.918396 447.450256,138.084030 
	C445.508942,140.396896 443.810791,143.795303 441.319244,144.604889 
	C432.722382,147.398300 425.654114,153.243149 416.214661,154.784378 
	C404.253265,156.737366 392.477448,159.317581 380.269653,159.022552 
	C373.979218,158.870514 367.682068,158.995850 360.020477,158.995850 
	C361.416290,162.983978 362.815186,166.022125 363.524170,169.213531 
	C364.849030,175.177216 367.095245,181.358688 366.524750,187.212372 
	C365.835846,194.280594 362.997711,201.248489 360.401947,207.995148 
	C356.858185,217.205704 353.652985,226.351990 351.635590,236.140823 
	C348.506561,251.323730 345.730286,266.273987 347.908691,281.855774 
	C349.357819,292.220978 351.491333,302.225861 357.510651,311.025024 
	C364.688507,321.517731 373.317596,330.480377 385.547974,334.820129 
	C394.523163,338.004822 403.674500,341.093689 413.008728,342.767517 
	C425.476959,345.003387 436.222900,349.918671 445.197662,358.733246 
	C447.101532,360.603119 448.597961,362.887787 449.644226,364.188416 
	C456.814026,358.753571 462.429688,353.586273 468.884735,349.881561 
	C474.404419,346.713654 480.721649,344.279968 486.977356,343.183899 
	C500.748535,340.770996 514.202820,337.756409 526.164429,330.203613 
	C540.680481,321.038025 549.277954,307.657471 552.958252,291.055817 
	C555.365112,280.198395 555.904114,269.243835 554.033875,258.205688 
	C552.456482,248.895828 551.709290,239.392151 549.413269,230.271667 
	C546.975220,220.586960 543.145386,211.252655 539.526917,201.064682 
z"/>
<path fill="#FEFEFE" opacity="1.000000" stroke="none" 
	d="
M533.201172,436.440826 
	C538.919983,429.142212 545.442627,422.719635 549.755493,415.053802 
	C554.163452,407.218994 560.638855,405.285522 568.212646,405.098236 
	C582.036743,404.756317 595.876221,404.899689 609.707458,405.030853 
	C621.692444,405.144501 627.599182,413.324432 627.885559,424.630066 
	C628.265259,439.619598 627.985291,454.625885 627.984924,469.624969 
	C627.982361,561.786011 627.974182,653.947083 627.983093,746.108154 
	C627.983887,754.241821 625.193054,760.856812 617.836914,764.954102 
	C616.636597,765.622681 615.081360,765.926025 613.687683,765.933533 
	C600.022583,766.007141 586.300232,765.218018 572.709717,766.229004 
	C561.980103,767.027100 555.101929,756.942505 555.068115,747.989685 
	C554.979431,724.491516 555.035706,700.992676 555.038452,677.494141 
	C555.044006,630.330322 555.052429,583.166565 555.059631,536.002747 
	C555.059753,534.852844 555.059631,533.702942 555.059631,531.131897 
	C551.328979,535.740173 548.308960,539.410828 545.353821,543.133057 
	C538.553223,551.698730 531.674316,560.205383 525.029968,568.891113 
	C516.568115,579.952698 508.375977,591.220581 499.925262,602.290955 
	C496.419403,606.883606 492.474518,611.138367 488.854431,615.647339 
	C482.425323,623.654968 475.362549,631.284363 469.960724,639.942871 
	C466.011627,646.272949 461.299530,649.978027 454.282898,651.310059 
	C448.418671,652.423401 442.905334,650.313293 439.387543,646.437073 
	C433.138672,639.551453 428.211304,631.481140 422.549377,624.044739 
	C414.569458,613.563965 406.335938,603.276062 398.374512,592.781555 
	C390.580597,582.507874 383.008179,572.066345 375.308777,561.720703 
	C365.891022,549.066101 356.411530,536.457397 347.020416,523.783081 
	C342.566406,517.771851 338.421265,511.525909 333.835297,505.619965 
	C328.804718,499.141449 323.302399,493.030304 318.235992,486.578217 
	C313.042603,479.964417 308.153473,473.112457 303.083252,466.400970 
	C298.882355,460.840210 294.568726,455.364471 290.383423,449.792175 
	C285.625061,443.456879 280.725189,437.209320 276.321167,430.632751 
	C273.133148,425.872009 274.755432,417.675171 277.863892,412.484406 
	C281.530609,406.361481 287.183380,405.220245 293.194183,405.091125 
	C306.354004,404.808472 319.527191,404.828522 332.688721,405.066315 
	C340.433502,405.206238 346.924286,407.441559 351.612427,414.824951 
	C356.446594,422.438293 363.035797,428.915955 368.559601,436.118652 
	C374.179565,443.446747 379.312469,451.146973 384.880554,458.516571 
	C394.536255,471.296387 404.416870,483.906128 414.102539,496.663574 
	C423.200745,508.647156 432.177917,520.722717 441.189575,532.771851 
	C444.610626,537.345947 447.979340,541.959229 451.916382,547.292053 
	C454.803162,543.198975 457.533020,539.135254 460.460693,535.219543 
	C465.720245,528.184875 471.173004,521.294128 476.401825,514.237183 
	C480.071625,509.284271 483.439240,504.108459 487.060455,499.118317 
	C490.599426,494.241455 494.305511,489.486206 497.906952,484.654236 
	C500.695404,480.913086 503.407440,477.114899 506.203033,473.379150 
	C512.259705,465.285431 518.394897,457.250031 524.403809,449.121155 
	C527.388245,445.083801 530.164612,440.892700 533.201172,436.440826 
z"/>
<path fill="#FEFEFE" opacity="1.000000" stroke="none" 
	d="
M336.634399,765.100098 
	C335.330933,765.468018 334.429199,765.945496 333.526154,765.947998 
	C318.374390,765.990662 303.222290,766.013123 288.070679,765.947388 
	C283.392120,765.927124 276.295380,759.217041 275.083099,753.573669 
	C274.439941,750.579895 274.075470,747.466553 274.066101,744.405701 
	C273.983032,717.265503 274.028564,690.124878 273.986450,662.984497 
	C273.975433,655.884155 275.839447,649.382019 281.184662,644.639221 
	C283.401459,642.672241 286.909607,641.277466 289.876007,641.191406 
	C302.686249,640.819580 315.536896,641.507446 328.326996,640.877991 
	C338.947418,640.355347 346.873627,649.977478 346.921722,658.656921 
	C347.091492,689.293030 347.202545,719.933777 346.791473,750.565369 
	C346.708740,756.731140 342.743561,761.832214 336.634399,765.100098 
z"/>
<path fill="#E69998" opacity="1.000000" stroke="none" 
	d="
M539.725098,201.415009 
	C543.145386,211.252655 546.975220,220.586960 549.413269,230.271667 
	C551.709290,239.392151 552.456482,248.895828 554.033875,258.205688 
	C555.904114,269.243835 555.365112,280.198395 552.958252,291.055817 
	C549.277954,307.657471 540.680481,321.038025 526.164429,330.203613 
	C514.202820,337.756409 500.748535,340.770996 486.977356,343.183899 
	C480.721649,344.279968 474.404419,346.713654 468.884735,349.881561 
	C462.429688,353.586273 456.814026,358.753571 449.644226,364.188416 
	C448.597961,362.887787 447.101532,360.603119 445.197662,358.733246 
	C436.222900,349.918671 425.476959,345.003387 413.008728,342.767517 
	C403.674500,341.093689 394.523163,338.004822 385.547974,334.820129 
	C373.317596,330.480377 364.688507,321.517731 357.510651,311.025024 
	C351.491333,302.225861 349.357819,292.220978 347.908691,281.855774 
	C345.730286,266.273987 348.506561,251.323730 351.635590,236.140823 
	C353.652985,226.351990 356.858185,217.205704 360.401947,207.995148 
	C362.997711,201.248489 365.835846,194.280594 366.524750,187.212372 
	C367.095245,181.358688 364.849030,175.177216 363.524170,169.213531 
	C362.815186,166.022125 361.416290,162.983978 360.020477,158.995850 
	C367.682068,158.995850 373.979218,158.870514 380.269653,159.022552 
	C392.477448,159.317581 404.253265,156.737366 416.214661,154.784378 
	C425.654114,153.243149 432.722382,147.398300 441.319244,144.604889 
	C443.810791,143.795303 445.508942,140.396896 447.450256,138.084030 
	C449.267975,135.918396 450.960266,135.206696 453.145874,137.658020 
	C459.627472,144.927551 468.249603,149.299332 476.955933,152.636734 
	C484.863739,155.668030 493.625519,157.235687 502.119598,157.794220 
	C514.803833,158.628296 527.583496,158.010742 541.461792,158.010742 
	C540.682617,161.836411 540.792114,164.608551 539.600464,166.603592 
	C532.700012,178.156723 534.085938,189.569794 539.725098,201.415009 
M440.033325,154.447815 
	C432.651733,158.481964 425.241821,161.840439 416.646515,163.309021 
	C406.614410,165.023148 396.769257,167.275101 386.490356,167.090164 
	C382.106781,167.011322 377.704559,167.965912 372.893311,168.496964 
	C373.588135,172.110306 374.544220,175.706161 374.933197,179.362350 
	C376.112976,190.450989 371.808350,200.403793 368.117523,210.459503 
	C365.775848,216.839417 362.906219,223.072708 361.147125,229.607010 
	C359.087372,237.258148 357.771271,245.131638 356.504425,252.968781 
	C354.765625,263.725891 354.395996,274.554657 356.691498,285.291504 
	C358.754547,294.940857 362.109924,303.788269 368.616241,311.762115 
	C375.373322,320.043274 383.658081,325.287445 393.228424,328.992981 
	C400.507629,331.811401 408.142792,333.213196 415.829346,334.749695 
	C428.863281,337.355103 441.260681,342.365753 450.286530,351.650726 
	C455.859467,348.055206 460.720642,344.207947 466.171661,341.587555 
	C472.547516,338.522614 479.268951,335.230682 486.139465,334.337708 
	C500.413635,332.482422 513.576233,328.498260 525.262207,320.007050 
	C531.850098,315.220123 537.361206,309.128143 540.440369,301.830200 
	C546.512207,287.439270 548.376343,272.159760 545.934204,256.631439 
	C543.028381,238.154175 538.036621,220.113525 531.045410,202.847198 
	C526.352112,191.256180 526.302124,180.068405 528.711304,168.272125 
	C518.755249,167.516953 508.732574,166.998444 498.771240,165.916000 
	C492.157532,165.197296 485.267212,164.622162 479.154083,162.278549 
	C470.611206,159.003433 462.554535,154.357239 454.548950,149.838608 
	C451.684998,148.222092 449.805145,147.968964 447.263611,150.086258 
	C445.319122,151.706177 442.896912,152.752686 440.033325,154.447815 
z"/>
<path fill="#000000" opacity="1.000000" stroke="none" 
	d="
M440.360260,154.251038 
	C442.896912,152.752686 445.319122,151.706177 447.263611,150.086258 
	C449.805145,147.968964 451.684998,148.222092 454.548950,149.838608 
	C462.554535,154.357239 470.611206,159.003433 479.154083,162.278549 
	C485.267212,164.622162 492.157532,165.197296 498.771240,165.916000 
	C508.732574,166.998444 518.755249,167.516953 528.711304,168.272125 
	C526.302124,180.068405 526.352112,191.256180 531.045410,202.847198 
	C538.036621,220.113525 543.028381,238.154175 545.934204,256.631439 
	C548.376343,272.159760 546.512207,287.439270 540.440369,301.830200 
	C537.361206,309.128143 531.850098,315.220123 525.262207,320.007050 
	C513.576233,328.498260 500.413635,332.482422 486.139465,334.337708 
	C479.268951,335.230682 472.547516,338.522614 466.171661,341.587555 
	C460.720642,344.207947 455.859467,348.055206 450.286530,351.650726 
	C441.260681,342.365753 428.863281,337.355103 415.829346,334.749695 
	C408.142792,333.213196 400.507629,331.811401 393.228424,328.992981 
	C383.658081,325.287445 375.373322,320.043274 368.616241,311.762115 
	C362.109924,303.788269 358.754547,294.940857 356.691498,285.291504 
	C354.395996,274.554657 354.765625,263.725891 356.504425,252.968781 
	C357.771271,245.131638 359.087372,237.258148 361.147125,229.607010 
	C362.906219,223.072708 365.775848,216.839417 368.117523,210.459503 
	C371.808350,200.403793 376.112976,190.450989 374.933197,179.362350 
	C374.544220,175.706161 373.588135,172.110306 372.893311,168.496964 
	C377.704559,167.965912 382.106781,167.011322 386.490356,167.090164 
	C396.769257,167.275101 406.614410,165.023148 416.646515,163.309021 
	C425.241821,161.840439 432.651733,158.481964 440.360260,154.251038 
M442.471466,159.103394 
	C442.274933,159.389206 442.078430,159.675018 441.170441,160.054718 
	C438.772583,161.118576 436.374725,162.182419 433.479187,163.164185 
	C433.316193,163.441788 433.153229,163.719376 432.490723,164.107758 
	C432.330231,164.165482 432.169769,164.223221 431.338165,164.139099 
	C430.199188,164.749023 429.060211,165.358948 427.434509,166.074188 
	C427.434509,166.074188 426.972565,166.260223 426.489105,166.207413 
	C426.192963,166.383789 426.005615,166.639801 425.149414,167.025650 
	C423.417236,167.452026 421.685059,167.878403 419.483856,168.220581 
	C419.193298,168.391327 419.005951,168.639893 418.100586,169.028030 
	C415.716095,169.457764 413.331573,169.887512 410.498688,170.147827 
	C410.498688,170.147827 410.020081,170.174393 409.231903,170.228485 
	C401.217499,170.853714 393.211700,171.655777 385.185883,172.046387 
	C379.121735,172.341553 378.361053,172.606659 379.127533,178.612595 
	C380.337128,188.090714 379.127655,196.974899 375.245544,205.789444 
	C372.445068,212.148102 370.781647,219.014114 368.704407,225.682907 
	C366.440552,232.950867 363.244812,240.124619 362.329712,247.569809 
	C361.022461,258.205719 361.417145,269.051025 361.088623,279.807007 
	C360.738953,291.253784 366.040558,300.940002 372.438263,309.436401 
	C380.533997,320.187927 392.698303,325.122406 405.770355,327.961884 
	C419.381897,330.918549 433.432709,332.813843 444.919434,341.909332 
	C448.890686,345.053925 453.327545,344.718414 457.104523,341.765839 
	C467.149445,333.913330 479.254791,331.798615 491.116089,328.871643 
	C498.084473,327.152100 505.479706,326.200226 511.819366,323.123596 
	C520.950378,318.692352 529.182556,312.519897 534.448669,302.847351 
	C534.796204,302.659821 534.881592,302.389465 534.915222,301.323944 
	C535.941345,298.882751 536.967468,296.441559 538.637024,293.613770 
	C539.251343,289.506744 539.865662,285.399750 540.654724,280.456573 
	C540.607117,273.008972 540.559570,265.561371 540.787598,257.404785 
	C539.782349,252.600571 538.777161,247.796341 537.892700,242.313278 
	C537.826233,241.860596 537.759766,241.407913 537.780762,240.488907 
	C537.611023,240.192581 537.357422,240.018448 536.980835,239.158875 
	C536.875610,238.090286 536.770386,237.021713 536.752014,235.496719 
	C536.585876,235.210709 536.341187,235.032654 535.958740,234.287506 
	C535.869934,233.846542 535.781128,233.405579 535.763245,232.495956 
	C535.593018,232.207977 535.346313,232.020691 534.961548,231.152054 
	C533.868286,227.085602 532.775024,223.019150 531.780029,218.495422 
	C531.610046,218.185394 531.348877,218.044876 530.875488,217.530502 
	C530.809631,217.357040 530.743713,217.183578 530.830750,216.353668 
	C530.222900,215.237335 529.615051,214.121002 528.904602,212.293427 
	C528.508850,211.185089 528.113037,210.076767 527.776245,208.493286 
	C527.603027,208.201492 527.351196,208.016708 526.929138,207.196243 
	C525.496277,202.779053 524.063416,198.361847 522.821716,193.229340 
	C522.504944,192.170227 522.188171,191.111099 521.867981,189.118347 
	C521.878845,185.066193 521.889771,181.014038 522.544617,176.678452 
	C522.677856,170.707718 518.457031,172.202271 514.279419,172.167862 
	C513.505737,172.226944 512.731995,172.286011 511.501587,172.206024 
	C511.501587,172.206024 511.043945,172.342072 510.130157,172.167755 
	C504.087158,171.441422 498.044189,170.715073 491.859131,169.539688 
	C491.667969,169.193085 491.398285,169.113922 490.227661,169.138428 
	C487.839600,168.751724 485.451569,168.365021 482.908447,167.493103 
	C482.615173,167.409256 482.321899,167.325394 481.245514,167.120148 
	C480.190002,167.069443 479.134491,167.018723 477.885162,166.518661 
	C477.682251,166.171921 477.398987,166.083954 476.386749,166.086212 
	C475.941376,166.050842 475.496002,166.015457 474.762604,165.382889 
	C473.838837,165.008652 472.915100,164.634399 471.324554,164.104782 
	C470.869598,164.069138 470.414673,164.033478 469.849701,163.541092 
	C469.663818,163.192474 469.395874,163.109879 468.305847,163.122894 
	C466.535370,162.413895 464.764923,161.704910 462.842133,160.558777 
	C462.654907,160.222168 462.389130,160.140137 461.361176,160.096939 
	C459.565582,159.060486 457.769958,158.024033 455.850586,156.534073 
	C455.662140,156.191223 455.392487,156.106400 454.395660,155.960266 
	C449.867432,151.902298 447.351898,157.035812 443.488342,158.187546 
	C443.180603,158.363876 443.003723,158.627899 442.998627,159.002579 
	C442.998627,159.002579 442.982178,158.958664 442.471466,159.103394 
z"/>
<path fill="#C38282" opacity="1.000000" stroke="none" 
	d="
M533.992798,302.973083 
	C529.182556,312.519897 520.950378,318.692352 511.819366,323.123596 
	C505.479706,326.200226 498.084473,327.152100 491.116089,328.871643 
	C479.254791,331.798615 467.149445,333.913330 457.104523,341.765839 
	C453.327545,344.718414 448.890686,345.053925 444.919434,341.909332 
	C433.432709,332.813843 419.381897,330.918549 405.770355,327.961884 
	C392.698303,325.122406 380.533997,320.187927 372.438263,309.436401 
	C366.040558,300.940002 360.738953,291.253784 361.088623,279.807007 
	C361.417145,269.051025 361.022461,258.205719 362.329712,247.569809 
	C363.244812,240.124619 366.440552,232.950867 368.704407,225.682907 
	C370.781647,219.014114 372.445068,212.148102 375.245544,205.789444 
	C379.127655,196.974899 380.337128,188.090714 379.127533,178.612595 
	C378.361053,172.606659 379.121735,172.341553 385.185883,172.046387 
	C393.211700,171.655777 401.217499,170.853714 409.702026,170.343170 
	C410.172119,170.457855 410.587189,170.600876 410.587189,170.600876 
	C410.587189,170.600876 410.947083,170.317261 410.947083,170.317261 
	C413.331573,169.887512 415.716095,169.457764 418.717987,168.948288 
	C419.608643,168.754456 419.814484,168.566528 419.952881,168.304779 
	C421.685059,167.878403 423.417236,167.452026 425.750000,166.943115 
	C426.626343,166.731369 426.833649,166.531250 426.972565,166.260223 
	C426.972565,166.260223 427.434509,166.074188 428.043304,166.030853 
	C429.771149,165.418640 430.890198,164.849777 432.009277,164.280945 
	C432.169769,164.223221 432.330231,164.165482 432.942566,163.982483 
	C433.654205,163.716110 433.848328,163.512451 433.976868,163.246262 
	C436.374725,162.182419 438.772583,161.118576 441.769836,159.915863 
	C442.573517,159.504242 442.777863,159.231445 442.982178,158.958664 
	C442.982178,158.958664 442.998627,159.002579 443.186646,158.928162 
	C443.643768,158.717148 443.844299,158.513168 443.976318,158.241791 
	C447.351898,157.035812 449.867432,151.902298 454.830627,156.288940 
	C455.460724,156.819702 455.696991,156.943008 455.974365,156.987564 
	C457.769958,158.024033 459.565582,159.060486 461.820160,160.369293 
	C462.480194,160.835190 462.718628,160.953262 462.994446,160.995911 
	C464.764923,161.704910 466.535370,162.413895 468.785339,163.374878 
	C469.456268,163.825714 469.687897,163.949371 469.959717,163.997833 
	C470.414673,164.033478 470.869598,164.069138 471.731842,164.507263 
	C473.109619,165.266510 474.080139,165.623291 475.050629,165.980072 
	C475.496002,166.015457 475.941376,166.050842 476.839539,166.348083 
	C477.513672,166.819138 477.775879,166.938477 478.078979,166.968002 
	C479.134491,167.018723 480.190002,167.069443 481.764832,167.359482 
	C482.502380,167.810608 482.762177,167.937119 483.063507,167.978317 
	C485.451569,168.365021 487.839600,168.751724 490.754578,169.386993 
	C491.483276,169.830948 491.723175,169.948669 492.001190,169.988739 
	C498.044189,170.715073 504.087158,171.441422 510.677734,172.373566 
	C511.225311,172.579391 511.637482,172.636810 511.637482,172.636810 
	C511.637482,172.636810 511.958313,172.345093 511.958313,172.345093 
	C512.731995,172.286011 513.505737,172.226944 514.867310,172.518066 
	C517.603638,174.232819 519.752136,175.597351 521.900635,176.961884 
	C521.889771,181.014038 521.878845,185.066193 521.639709,189.770935 
	C521.817810,191.597214 522.224182,192.770935 522.630554,193.944656 
	C524.063416,198.361847 525.496277,202.779053 527.031250,207.775208 
	C527.258057,208.625351 527.452698,208.830109 527.717285,208.968430 
	C528.113037,210.076767 528.508850,211.185089 528.950378,213.005737 
	C529.556702,214.815414 530.117249,215.912750 530.677795,217.010101 
	C530.743713,217.183578 530.809631,217.357040 531.000916,217.983063 
	C531.253845,218.669876 531.439026,218.842239 531.681763,218.952698 
	C532.775024,223.019150 533.868286,227.085602 535.044678,231.749023 
	C535.245911,232.616196 535.434082,232.822388 535.692383,232.964600 
	C535.781128,233.405579 535.869934,233.846542 536.039551,234.823120 
	C536.233887,235.619247 536.415466,235.817368 536.665100,235.953125 
	C536.770386,237.021713 536.875610,238.090286 537.054321,239.762756 
	C537.247498,240.628891 537.436035,240.825089 537.693298,240.955231 
	C537.759766,241.407913 537.826233,241.860596 537.488342,242.652496 
	C536.166626,242.990845 535.249329,242.989960 534.245605,242.660919 
	C534.125549,241.881592 534.091797,241.430405 534.272400,240.828796 
	C534.111694,240.114639 533.736572,239.550934 533.269470,238.579895 
	C532.112549,233.797821 531.047668,229.423050 529.929382,224.847839 
	C529.761047,224.383942 529.578552,224.181381 529.236389,223.711731 
	C529.090088,222.932800 529.035889,222.481842 528.926880,221.831787 
	C528.752686,221.371735 528.565186,221.176056 528.211121,220.678101 
	C527.741211,218.875031 527.369812,217.439499 526.943420,215.811661 
	C526.772522,215.367905 526.593018,215.175812 526.232300,214.772217 
	C526.078125,214.307922 526.041504,214.114502 525.948975,213.747742 
	C525.781860,213.347580 525.613037,213.178162 525.209412,212.737762 
	C524.692566,211.256744 524.352905,210.104126 523.947266,208.766403 
	C523.754211,208.341675 523.569824,208.160217 523.242798,207.652054 
	C522.431091,204.866119 521.704712,202.465057 520.928772,199.861633 
	C520.768250,199.392609 520.588013,199.186523 520.239807,198.714890 
	C520.088196,197.937561 520.035339,197.486328 519.932556,196.839325 
	C519.773071,196.385513 519.595947,196.188004 519.257812,195.629227 
	C519.106750,193.480270 519.049072,191.753098 518.944336,189.834076 
	C518.793213,189.389343 518.623962,189.192352 518.276001,188.598190 
	C518.110596,184.390244 518.058960,180.635300 517.882812,176.677231 
	C517.534241,176.229507 517.258179,176.082062 516.472351,176.018036 
	C510.330719,175.564713 504.646973,175.125076 498.858948,174.562958 
	C498.410614,174.314743 498.164795,174.435272 497.678223,174.818542 
	C496.539398,174.454620 495.739563,174.074203 494.689209,173.487061 
	C493.579803,173.207657 492.720856,173.135025 491.493774,173.041626 
	C490.400604,172.902161 489.675507,172.783447 488.805847,172.501221 
	C488.419647,172.155258 488.147522,172.063812 487.427002,172.044159 
	C485.343475,171.898071 483.677734,171.771225 481.918091,171.312988 
	C479.544403,170.323059 477.264526,169.664520 474.594177,168.978180 
	C468.476501,166.590866 462.749329,164.231339 456.847168,161.652252 
	C456.142334,161.283340 455.612488,161.134003 454.784332,160.884216 
	C453.979736,160.418457 453.473511,160.053146 452.856201,159.526215 
	C452.557068,159.171417 452.331848,159.043991 451.695801,158.931870 
	C450.037445,159.538345 448.770813,160.233887 447.464844,160.845398 
	C441.646820,163.569626 435.817535,166.269806 429.777893,168.731750 
	C427.038055,169.530502 424.512726,170.576172 421.567200,171.710495 
	C413.023407,173.010590 404.913300,174.326019 396.770447,175.390610 
	C392.559998,175.941071 388.291412,176.046524 383.726837,176.376312 
	C385.306427,189.781097 380.231842,201.467880 376.238800,213.453857 
	C372.804932,223.761398 369.512604,234.167145 367.070007,244.740234 
	C364.363739,256.454498 362.336670,268.489166 365.038025,280.473785 
	C366.744568,288.044678 368.590973,295.970062 372.360413,302.608978 
	C380.035858,316.127197 393.624725,322.333466 408.085907,324.624939 
	C422.590576,326.923340 435.941101,331.133942 448.312439,338.852661 
	C449.289307,339.462158 450.923370,340.055939 451.777985,339.652618 
	C456.764740,337.299194 461.510895,334.426880 466.530945,332.155487 
	C471.537445,329.890228 476.620056,327.189850 481.935364,326.335419 
	C493.240692,324.518066 504.071716,322.408813 514.443054,316.731903 
	C522.483215,312.331024 527.922485,306.457153 532.489746,298.769592 
	C532.790466,298.084564 532.903076,297.581177 533.082031,296.794617 
	C533.211304,296.328033 533.274231,296.144623 533.496399,295.842194 
	C533.843140,295.523499 533.959595,295.288635 534.053833,294.760498 
	C534.164978,294.338806 534.227417,294.175232 534.660278,294.008423 
	C536.018311,294.003571 537.005920,294.001984 537.993591,294.000366 
	C536.967468,296.441559 535.941345,298.882751 534.643311,301.795349 
	C534.173462,302.463684 534.047241,302.699127 533.992798,302.973083 
z"/>
<path fill="#BC7D7E" opacity="1.000000" stroke="none" 
	d="
M534.331970,242.989075 
	C535.249329,242.989960 536.166626,242.990845 537.427979,242.991913 
	C538.777161,247.796341 539.782349,252.600571 540.345459,257.687134 
	C539.437622,258.323334 538.725708,258.587769 538.558044,259.049774 
	C538.222168,259.975037 538.183960,261.008423 537.695190,261.745819 
	C536.355652,255.326004 535.343811,249.157547 534.331970,242.989075 
z"/>
<path fill="#E19594" opacity="1.000000" stroke="none" 
	d="
M538.022949,261.997162 
	C538.183960,261.008423 538.222168,259.975037 538.558044,259.049774 
	C538.725708,258.587769 539.437622,258.323334 540.207642,258.041626 
	C540.559570,265.561371 540.607117,273.008972 540.252197,280.726929 
	C539.246399,280.666748 538.643188,280.336243 538.057739,279.537720 
	C538.058044,273.378845 538.040466,267.687988 538.022949,261.997162 
z"/>
<path fill="#BC7D7E" opacity="1.000000" stroke="none" 
	d="
M538.039917,280.005737 
	C538.643188,280.336243 539.246399,280.666748 540.164856,281.144989 
	C539.865662,285.399750 539.251343,289.506744 538.315308,293.807068 
	C537.005920,294.001984 536.018311,294.003571 534.714172,293.639771 
	C535.611755,288.851501 536.825806,284.428619 538.039917,280.005737 
M538.415833,283.473083 
	C538.415833,283.473083 538.535278,283.396393 538.415833,283.473083 
z"/>
<path fill="#BC7D7E" opacity="1.000000" stroke="none" 
	d="
M522.222656,176.820160 
	C519.752136,175.597351 517.603638,174.232819 515.251343,172.587051 
	C518.457031,172.202271 522.677856,170.707718 522.222656,176.820160 
z"/>
<path fill="#BC7D7E" opacity="1.000000" stroke="none" 
	d="
M522.726135,193.587006 
	C522.224182,192.770935 521.817810,191.597214 521.641418,190.237747 
	C522.188171,191.111099 522.504944,192.170227 522.726135,193.587006 
z"/>
<path fill="#BC7D7E" opacity="1.000000" stroke="none" 
	d="
M431.673706,164.210022 
	C430.890198,164.849777 429.771149,165.418640 428.286652,165.978180 
	C429.060211,165.358948 430.199188,164.749023 431.673706,164.210022 
z"/>
<path fill="#BC7D7E" opacity="1.000000" stroke="none" 
	d="
M530.754272,216.681885 
	C530.117249,215.912750 529.556702,214.815414 529.001709,213.361374 
	C529.615051,214.121002 530.222900,215.237335 530.754272,216.681885 
z"/>
<path fill="#BC7D7E" opacity="1.000000" stroke="none" 
	d="
M474.906616,165.681488 
	C474.080139,165.623291 473.109619,165.266510 472.065247,164.584946 
	C472.915100,164.634399 473.838837,165.008652 474.906616,165.681488 
z"/>
<path fill="#BC7D7E" opacity="1.000000" stroke="none" 
	d="
M534.220703,302.910217 
	C534.047241,302.699127 534.173462,302.463684 534.538208,302.151520 
	C534.881592,302.389465 534.796204,302.659821 534.220703,302.910217 
z"/>
<path fill="#BC7D7E" opacity="1.000000" stroke="none" 
	d="
M531.730896,218.724060 
	C531.439026,218.842239 531.253845,218.669876 531.061401,218.254761 
	C531.348877,218.044876 531.610046,218.185394 531.730896,218.724060 
z"/>
<path fill="#BC7D7E" opacity="1.000000" stroke="none" 
	d="
M535.727783,232.730286 
	C535.434082,232.822388 535.245911,232.616196 535.075562,232.140045 
	C535.346313,232.020691 535.593018,232.207977 535.727783,232.730286 
z"/>
<path fill="#BC7D7E" opacity="1.000000" stroke="none" 
	d="
M536.708557,235.724915 
	C536.415466,235.817368 536.233887,235.619247 536.069153,235.160645 
	C536.341187,235.032654 536.585876,235.210709 536.708557,235.724915 
z"/>
<path fill="#BC7D7E" opacity="1.000000" stroke="none" 
	d="
M537.737061,240.722076 
	C537.436035,240.825089 537.247498,240.628891 537.073853,240.166595 
	C537.357422,240.018448 537.611023,240.192581 537.737061,240.722076 
z"/>
<path fill="#BC7D7E" opacity="1.000000" stroke="none" 
	d="
M455.912476,156.760818 
	C455.696991,156.943008 455.460724,156.819702 455.153625,156.448608 
	C455.392487,156.106400 455.662140,156.191223 455.912476,156.760818 
z"/>
<path fill="#BC7D7E" opacity="1.000000" stroke="none" 
	d="
M443.732330,158.214661 
	C443.844299,158.513168 443.643768,158.717148 443.166199,158.916656 
	C443.003723,158.627899 443.180603,158.363876 443.732330,158.214661 
z"/>
<path fill="#BC7D7E" opacity="1.000000" stroke="none" 
	d="
M410.722900,170.232544 
	C410.947083,170.317261 410.587189,170.600876 410.587189,170.600876 
	C410.587189,170.600876 410.172119,170.457855 410.096100,170.316132 
	C410.020081,170.174393 410.498688,170.147827 410.722900,170.232544 
z"/>
<path fill="#BC7D7E" opacity="1.000000" stroke="none" 
	d="
M462.918274,160.777344 
	C462.718628,160.953262 462.480194,160.835190 462.161987,160.477173 
	C462.389130,160.140137 462.654907,160.222168 462.918274,160.777344 
z"/>
<path fill="#BC7D7E" opacity="1.000000" stroke="none" 
	d="
M433.728027,163.205231 
	C433.848328,163.512451 433.654205,163.716110 433.192322,163.927094 
	C433.153229,163.719376 433.316193,163.441788 433.728027,163.205231 
z"/>
<path fill="#BC7D7E" opacity="1.000000" stroke="none" 
	d="
M469.904724,163.769470 
	C469.687897,163.949371 469.456268,163.825714 469.155365,163.460083 
	C469.395874,163.109879 469.663818,163.192474 469.904724,163.769470 
z"/>
<path fill="#BC7D7E" opacity="1.000000" stroke="none" 
	d="
M426.730835,166.233826 
	C426.833649,166.531250 426.626343,166.731369 426.138855,166.918030 
	C426.005615,166.639801 426.192963,166.383789 426.730835,166.233826 
z"/>
<path fill="#BC7D7E" opacity="1.000000" stroke="none" 
	d="
M477.982056,166.743332 
	C477.775879,166.938477 477.513672,166.819138 477.163849,166.432373 
	C477.398987,166.083954 477.682251,166.171921 477.982056,166.743332 
z"/>
<path fill="#BC7D7E" opacity="1.000000" stroke="none" 
	d="
M482.985962,167.735718 
	C482.762177,167.937119 482.502380,167.810608 482.156372,167.420166 
	C482.321899,167.325394 482.615173,167.409256 482.985962,167.735718 
z"/>
<path fill="#BC7D7E" opacity="1.000000" stroke="none" 
	d="
M419.718384,168.262665 
	C419.814484,168.566528 419.608643,168.754456 419.128601,168.917419 
	C419.005951,168.639893 419.193298,168.391327 419.718384,168.262665 
z"/>
<path fill="#BC7D7E" opacity="1.000000" stroke="none" 
	d="
M491.930176,169.764221 
	C491.723175,169.948669 491.483276,169.830948 491.165802,169.468872 
	C491.398285,169.113922 491.667969,169.193085 491.930176,169.764221 
z"/>
<path fill="#BC7D7E" opacity="1.000000" stroke="none" 
	d="
M511.729950,172.275558 
	C511.958313,172.345093 511.637482,172.636810 511.637482,172.636810 
	C511.637482,172.636810 511.225311,172.579391 511.134644,172.460724 
	C511.043945,172.342072 511.501587,172.206024 511.729950,172.275558 
z"/>
<path fill="#BC7D7E" opacity="1.000000" stroke="none" 
	d="
M442.726807,159.031036 
	C442.777863,159.231445 442.573517,159.504242 442.125549,159.868927 
	C442.078430,159.675018 442.274933,159.389206 442.726807,159.031036 
z"/>
<path fill="#BC7D7E" opacity="1.000000" stroke="none" 
	d="
M527.746765,208.730865 
	C527.452698,208.830109 527.258057,208.625351 527.077026,208.146545 
	C527.351196,208.016708 527.603027,208.201492 527.746765,208.730865 
z"/>
<path fill="#000000" opacity="1.000000" stroke="none" 
	d="
M538.057739,279.537720 
	C536.825806,284.428619 535.611755,288.851501 534.343811,293.643005 
	C534.227417,294.175232 534.164978,294.338806 533.830078,294.830139 
	C533.208740,295.350098 533.135254,295.617889 533.337097,295.961212 
	C533.274231,296.144623 533.211304,296.328033 532.799133,296.883972 
	C532.400513,297.821442 532.351013,298.386353 532.301575,298.951263 
	C527.922485,306.457153 522.483215,312.331024 514.443054,316.731903 
	C504.071716,322.408813 493.240692,324.518066 481.935364,326.335419 
	C476.620056,327.189850 471.537445,329.890228 466.530945,332.155487 
	C461.510895,334.426880 456.764740,337.299194 451.777985,339.652618 
	C450.923370,340.055939 449.289307,339.462158 448.312439,338.852661 
	C435.941101,331.133942 422.590576,326.923340 408.085907,324.624939 
	C393.624725,322.333466 380.035858,316.127197 372.360413,302.608978 
	C368.590973,295.970062 366.744568,288.044678 365.038025,280.473785 
	C362.336670,268.489166 364.363739,256.454498 367.070007,244.740234 
	C369.512604,234.167145 372.804932,223.761398 376.238800,213.453857 
	C380.231842,201.467880 385.306427,189.781097 383.726837,176.376312 
	C388.291412,176.046524 392.559998,175.941071 396.770447,175.390610 
	C404.913300,174.326019 413.023407,173.010590 421.931396,171.800262 
	C425.141235,170.860458 427.566803,169.919571 429.992340,168.978668 
	C435.817535,166.269806 441.646820,163.569626 447.464844,160.845398 
	C448.770813,160.233887 450.037445,159.538345 451.743042,159.162598 
	C452.163910,159.443710 452.503601,159.769821 452.503601,159.769821 
	C452.503601,159.769821 452.967285,159.687836 452.967285,159.687836 
	C453.473511,160.053146 453.979736,160.418457 454.877625,161.172836 
	C455.853577,161.665222 456.437866,161.768524 457.022186,161.871826 
	C462.749329,164.231339 468.476501,166.590866 474.771301,169.284943 
	C477.563293,170.294464 479.787628,170.969421 482.011963,171.644379 
	C483.677734,171.771225 485.343475,171.898071 487.563721,172.237335 
	C488.118195,172.449738 488.484985,172.748199 488.484985,172.748199 
	C488.484985,172.748199 488.950439,172.664734 488.950439,172.664734 
	C489.675507,172.783447 490.400604,172.902161 491.701050,173.312531 
	C493.164185,173.634048 494.051941,173.663910 494.939697,173.693787 
	C495.739563,174.074203 496.539398,174.454620 497.920166,174.833588 
	C498.501068,174.832153 498.963226,174.685455 498.963226,174.685455 
	C504.646973,175.125076 510.330719,175.564713 516.577515,176.245209 
	C517.429504,176.617493 517.718445,176.748932 518.007324,176.880356 
	C518.058960,180.635300 518.110596,184.390244 518.235474,188.816071 
	C518.463562,189.758652 518.691162,189.938309 518.991394,190.025940 
	C519.049072,191.753098 519.106750,193.480270 519.207458,195.855270 
	C519.414734,196.790207 519.658752,196.967529 519.982544,197.035095 
	C520.035339,197.486328 520.088196,197.937561 520.197998,198.944733 
	C520.420959,199.784943 520.662109,199.972702 520.978333,200.063995 
	C521.704712,202.465057 522.431091,204.866119 523.195312,207.882416 
	C523.403564,208.802902 523.663574,208.954193 524.013245,208.951508 
	C524.352905,210.104126 524.692566,211.256744 525.170471,212.946655 
	C525.461243,213.756165 525.693359,213.901871 526.004883,213.921066 
	C526.041504,214.114502 526.078125,214.307922 526.208374,214.992767 
	C526.460938,215.755493 526.693054,215.928757 526.998352,216.003983 
	C527.369812,217.439499 527.741211,218.875031 528.166138,220.910843 
	C528.389099,221.808380 528.643066,221.981613 528.981689,222.030869 
	C529.035889,222.481842 529.090088,222.932800 529.191162,223.943588 
	C529.405396,224.795532 529.653687,224.977158 529.982788,225.048279 
	C531.047668,229.423050 532.112549,233.797821 533.175110,238.874908 
	C533.467896,240.044556 533.763000,240.511887 534.058105,240.979218 
	C534.091797,241.430405 534.125549,241.881592 534.245605,242.660919 
	C535.343811,249.157547 536.355652,255.326004 537.695190,261.745819 
	C538.040466,267.687988 538.058044,273.378845 538.057739,279.537720 
z"/>
<path fill="#BC7D7E" opacity="1.000000" stroke="none" 
	d="
M429.777893,168.731750 
	C427.566803,169.919571 425.141235,170.860458 422.351532,171.711609 
	C424.512726,170.576172 427.038055,169.530502 429.777893,168.731750 
z"/>
<path fill="#BC7D7E" opacity="1.000000" stroke="none" 
	d="
M481.918091,171.312988 
	C479.787628,170.969421 477.563293,170.294464 475.161804,169.312744 
	C477.264526,169.664520 479.544403,170.323059 481.918091,171.312988 
z"/>
<path fill="#BC7D7E" opacity="1.000000" stroke="none" 
	d="
M534.272461,240.828796 
	C533.763000,240.511887 533.467896,240.044556 533.267151,239.282227 
	C533.736572,239.550934 534.111694,240.114639 534.272461,240.828796 
z"/>
<path fill="#BC7D7E" opacity="1.000000" stroke="none" 
	d="
M494.689209,173.487030 
	C494.051941,173.663910 493.164185,173.634048 492.069153,173.333282 
	C492.720856,173.135025 493.579803,173.207657 494.689209,173.487030 
z"/>
<path fill="#BC7D7E" opacity="1.000000" stroke="none" 
	d="
M456.847168,161.652252 
	C456.437866,161.768524 455.853577,161.665222 455.175964,161.273285 
	C455.612488,161.134003 456.142334,161.283340 456.847168,161.652252 
z"/>
<path fill="#BC7D7E" opacity="1.000000" stroke="none" 
	d="
M532.489746,298.769592 
	C532.351013,298.386353 532.400513,297.821442 532.732788,297.167175 
	C532.903076,297.581177 532.790466,298.084564 532.489746,298.769592 
z"/>
<path fill="#BC7D7E" opacity="1.000000" stroke="none" 
	d="
M526.943420,215.811661 
	C526.693054,215.928757 526.460938,215.755493 526.325989,215.263626 
	C526.593018,215.175812 526.772522,215.367905 526.943420,215.811661 
z"/>
<path fill="#BC7D7E" opacity="1.000000" stroke="none" 
	d="
M528.926880,221.831787 
	C528.643066,221.981613 528.389099,221.808380 528.264648,221.278412 
	C528.565186,221.176056 528.752686,221.371735 528.926880,221.831787 
z"/>
<path fill="#BC7D7E" opacity="1.000000" stroke="none" 
	d="
M529.929321,224.847839 
	C529.653687,224.977158 529.405396,224.795532 529.283203,224.271545 
	C529.578552,224.181381 529.761047,224.383942 529.929321,224.847839 
z"/>
<path fill="#BC7D7E" opacity="1.000000" stroke="none" 
	d="
M519.932617,196.839325 
	C519.658752,196.967529 519.414734,196.790207 519.300903,196.277069 
	C519.595947,196.188004 519.773071,196.385513 519.932617,196.839325 
z"/>
<path fill="#BC7D7E" opacity="1.000000" stroke="none" 
	d="
M533.496399,295.842194 
	C533.135254,295.617889 533.208740,295.350098 533.781250,295.088196 
	C533.959595,295.288635 533.843140,295.523499 533.496399,295.842194 
z"/>
<path fill="#BC7D7E" opacity="1.000000" stroke="none" 
	d="
M452.856201,159.526199 
	C452.967285,159.687836 452.503601,159.769821 452.503601,159.769821 
	C452.503601,159.769821 452.163910,159.443710 452.116669,159.212982 
	C452.331848,159.043991 452.557068,159.171417 452.856201,159.526199 
z"/>
<path fill="#BC7D7E" opacity="1.000000" stroke="none" 
	d="
M525.948975,213.747742 
	C525.693359,213.901871 525.461243,213.756165 525.347595,213.275055 
	C525.613037,213.178162 525.781860,213.347580 525.948975,213.747742 
z"/>
<path fill="#BC7D7E" opacity="1.000000" stroke="none" 
	d="
M488.805847,172.501221 
	C488.950439,172.664734 488.484985,172.748199 488.484985,172.748199 
	C488.484985,172.748199 488.118195,172.449738 487.981506,172.256561 
	C488.147522,172.063812 488.419647,172.155258 488.805847,172.501221 
z"/>
<path fill="#BC7D7E" opacity="1.000000" stroke="none" 
	d="
M498.858948,174.562958 
	C498.963226,174.685455 498.501068,174.832153 498.259125,174.817108 
	C498.164795,174.435272 498.410614,174.314743 498.858948,174.562958 
z"/>
<path fill="#BC7D7E" opacity="1.000000" stroke="none" 
	d="
M517.882812,176.677231 
	C517.718445,176.748932 517.429504,176.617493 517.035400,176.258911 
	C517.258179,176.082062 517.534241,176.229507 517.882812,176.677231 
z"/>
<path fill="#BC7D7E" opacity="1.000000" stroke="none" 
	d="
M518.944336,189.834076 
	C518.691162,189.938309 518.463562,189.758652 518.349182,189.269073 
	C518.623962,189.192352 518.793213,189.389343 518.944336,189.834076 
z"/>
<path fill="#BC7D7E" opacity="1.000000" stroke="none" 
	d="
M520.928772,199.861633 
	C520.662109,199.972702 520.420959,199.784943 520.296753,199.270844 
	C520.588013,199.186523 520.768250,199.392609 520.928772,199.861633 
z"/>
<path fill="#BC7D7E" opacity="1.000000" stroke="none" 
	d="
M523.947266,208.766403 
	C523.663574,208.954193 523.403564,208.802902 523.280640,208.267288 
	C523.569824,208.160217 523.754211,208.341675 523.947266,208.766403 
z"/>
<path fill="#E19594" opacity="1.000000" stroke="none" 
	d="
M538.475586,283.434753 
	C538.535278,283.396393 538.415833,283.473083 538.475586,283.434753 
z"/>
</svg>