<svg xmlns="http://www.w3.org/2000/svg" width="50" height="50" viewBox="0 0 1280 674" version="1.1"><path d="M 0 181.500 L 0 363 256 363 L 512 363 512 181.500 L 512 0 256 0 L 0 0 0 181.500 M 132.362 31.750 L 130.436 38.500 123.102 39 L 115.768 39.500 121.362 43.500 C 124.439 45.700, 126.967 47.767, 126.978 48.093 C 126.990 48.420, 126.100 51.303, 125 54.500 C 123.900 57.697, 123 60.707, 123 61.189 C 123 61.671, 125.403 60.250, 128.341 58.032 C 131.278 55.815, 134.130 54, 134.678 54 C 135.226 54, 138.202 55.810, 141.291 58.022 L 146.907 62.044 144.954 56.365 C 143.879 53.242, 143 49.944, 143 49.036 C 143 48.127, 145.570 45.498, 148.711 43.192 L 154.421 39 146.907 39 L 139.394 39 137.139 32 C 135.899 28.150, 134.750 25, 134.586 25 C 134.422 25, 133.421 28.038, 132.362 31.750 M 213.153 31.957 L 210.912 38.914 203.723 39.207 L 196.534 39.500 202.017 43.438 C 205.033 45.604, 207.621 47.450, 207.768 47.540 C 207.916 47.630, 207.147 50.563, 206.059 54.059 C 204.971 57.554, 204.253 60.586, 204.463 60.796 C 204.673 61.006, 207.255 59.397, 210.200 57.221 L 215.556 53.265 221.010 57.188 C 224.009 59.346, 226.591 60.727, 226.747 60.258 C 226.904 59.789, 226.145 56.829, 225.062 53.680 L 223.092 47.956 229.246 43.478 L 235.400 39 227.742 39 L 220.085 39 218 32 C 216.853 28.150, 215.798 25, 215.654 25 C 215.511 25, 214.385 28.131, 213.153 31.957 M 294.099 31.750 L 291.915 39 284.348 39 L 276.780 39 282.838 43.460 L 288.896 47.919 286.837 54.016 C 285.705 57.369, 285.022 60.356, 285.321 60.654 C 285.619 60.952, 288.223 59.396, 291.107 57.196 L 296.352 53.197 301.754 57.187 C 304.725 59.382, 307.327 61.006, 307.537 60.796 C 307.747 60.586, 307.029 57.554, 305.941 54.059 C 304.853 50.563, 304.084 47.630, 304.232 47.540 C 304.379 47.450, 306.967 45.604, 309.983 43.438 L 315.466 39.500 308.302 39.208 L 301.138 38.915 298.711 31.708 L 296.283 24.500 294.099 31.750 M 374.981 31.750 L 372.606 39 365.053 39 L 357.500 39 363.250 43.079 C 366.536 45.410, 369 47.914, 369 48.923 C 369 49.893, 368.119 53.248, 367.042 56.378 L 365.084 62.069 370.835 58.034 C 373.999 55.815, 376.957 54, 377.409 54 C 377.862 54, 380.451 55.629, 383.163 57.620 C 385.875 59.610, 388.295 61.039, 388.540 60.793 C 388.785 60.548, 388.031 57.519, 386.864 54.063 C 385.633 50.418, 385.131 47.509, 385.669 47.139 C 386.179 46.788, 388.824 44.925, 391.548 43 L 396.500 39.500 389.063 39 L 381.626 38.500 379.491 31.500 L 377.355 24.500 374.981 31.750 M 51.390 32.250 L 49.396 38.500 41.999 39 L 34.602 39.500 40.301 43.416 C 43.435 45.570, 46 47.668, 46 48.077 C 46 48.487, 45.106 51.674, 44.013 55.161 C 42.920 58.647, 42.020 61.627, 42.013 61.782 C 42.006 61.936, 44.456 60.249, 47.457 58.032 C 50.459 55.814, 53.411 54, 54.017 54 C 54.623 54, 57.445 55.773, 60.286 57.940 C 63.128 60.107, 65.577 61.756, 65.729 61.604 C 65.881 61.452, 65.104 58.709, 64.003 55.508 C 62.901 52.306, 62 49.137, 62 48.465 C 62 47.793, 64.534 45.501, 67.630 43.372 L 73.261 39.500 65.743 39.210 L 58.225 38.920 56.375 32.460 C 55.358 28.907, 54.269 26, 53.955 26 C 53.642 26, 52.488 28.813, 51.390 32.250 M 455.614 32.500 L 453.752 39 446.165 39 L 438.579 39 444.289 43.192 C 447.430 45.498, 450 47.902, 450 48.536 C 450 49.169, 449.100 52.303, 448 55.500 C 446.900 58.697, 446 61.492, 446 61.712 C 446 61.931, 448.548 60.285, 451.663 58.055 C 454.777 55.825, 457.774 54, 458.322 54 C 458.870 54, 461.797 55.872, 464.827 58.159 C 468.122 60.647, 470.075 61.637, 469.685 60.622 C 467.519 54.976, 465.906 47.669, 466.706 47.125 C 467.212 46.781, 469.791 44.925, 472.437 43 L 477.249 39.500 469.927 39 L 462.604 38.500 460.610 32.250 C 459.512 28.813, 458.358 26, 458.045 26 C 457.731 26, 456.637 28.925, 455.614 32.500 M 132.132 123.023 L 129.885 130 122.762 130 L 115.639 130 121.069 134.045 C 124.056 136.269, 126.620 138.428, 126.766 138.842 C 126.912 139.256, 126.123 142.235, 125.013 145.462 C 123.903 148.688, 123.200 151.534, 123.451 151.785 C 123.702 152.036, 125.841 150.753, 128.204 148.935 C 130.567 147.117, 132.993 145.265, 133.595 144.821 C 134.246 144.340, 136.986 145.656, 140.345 148.061 C 146.478 152.453, 146.995 152.072, 144.500 145 C 143.675 142.662, 143 140.168, 143 139.459 C 143 138.750, 145.357 136.445, 148.237 134.335 L 153.474 130.500 146.490 130 L 139.506 129.500 137.207 123.038 C 135.943 119.483, 134.789 116.456, 134.644 116.310 C 134.498 116.165, 133.368 119.185, 132.132 123.023 M 213.153 122.957 L 210.912 129.914 203.761 130.207 L 196.609 130.500 202.339 134.440 C 205.490 136.607, 207.894 138.857, 207.680 139.440 C 205.726 144.772, 203.872 151.206, 204.197 151.530 C 204.417 151.751, 207.082 150.169, 210.118 148.015 L 215.639 144.098 221.319 148.128 C 224.444 150.345, 227 151.743, 227 151.236 C 227 150.728, 226.096 147.684, 224.990 144.472 C 223.885 141.259, 223.344 138.376, 223.788 138.065 C 224.233 137.754, 226.824 135.925, 229.548 134 L 234.500 130.500 227.434 130.210 L 220.368 129.920 218.126 122.960 C 216.893 119.132, 215.774 116, 215.639 116 C 215.504 116, 214.385 119.131, 213.153 122.957 M 293.968 122.710 L 291.632 129.920 284.695 130.210 L 277.758 130.500 282.566 134 C 285.211 135.925, 287.744 137.754, 288.197 138.065 C 288.649 138.376, 288.108 141.279, 286.994 144.518 C 285.880 147.756, 285.094 150.783, 285.248 151.244 C 285.402 151.705, 287.950 150.276, 290.911 148.067 L 296.294 144.050 301.848 147.991 C 304.903 150.158, 307.583 151.751, 307.803 151.530 C 308.128 151.206, 306.274 144.772, 304.320 139.440 C 304.106 138.857, 306.510 136.607, 309.661 134.440 L 315.391 130.500 308.265 130.208 L 301.138 129.915 298.722 122.708 L 296.305 115.500 293.968 122.710 M 374.936 122.557 L 372.500 129.500 365.520 130 L 358.540 130.500 363.770 134.248 C 366.646 136.310, 369 138.616, 369 139.373 C 369 140.129, 368.325 142.662, 367.500 145 C 364.986 152.124, 365.501 152.512, 371.663 148.141 L 377.326 144.123 382.828 148.063 C 385.854 150.230, 388.482 151.851, 388.668 151.666 C 388.853 151.480, 388.104 148.709, 387.003 145.508 C 385.901 142.306, 385 139.362, 385 138.965 C 385 138.568, 387.534 136.501, 390.631 134.372 L 396.262 130.500 389.200 130.208 L 382.138 129.915 379.755 122.765 L 377.371 115.614 374.936 122.557 M 51.389 123.250 L 49.393 129.500 42.014 129.798 L 34.634 130.095 40.317 134.127 C 43.443 136.344, 46 138.502, 46 138.923 C 46 139.343, 45.099 142.306, 43.997 145.508 C 42.896 148.709, 42.186 151.519, 42.420 151.753 C 42.653 151.987, 45.355 150.323, 48.423 148.057 L 54.001 143.936 59.341 147.968 C 62.279 150.186, 64.954 152, 65.287 152 C 65.620 152, 65.017 149.455, 63.946 146.343 C 62.876 143.232, 62 140.107, 62 139.398 C 62 138.690, 64.519 136.306, 67.599 134.101 L 73.198 130.092 65.902 129.796 L 58.607 129.500 56.611 123.250 C 55.513 119.813, 54.338 117, 54 117 C 53.662 117, 52.487 119.813, 51.389 123.250 M 455.391 123.250 L 453.396 129.500 446.461 130 L 439.526 130.500 444.763 134.335 C 447.643 136.445, 450 138.737, 450 139.429 C 450 140.121, 449.124 143.232, 448.054 146.343 C 446.983 149.455, 446.343 152, 446.631 152 C 446.918 152, 449.664 150.203, 452.731 148.006 C 456.043 145.634, 458.754 144.340, 459.405 144.821 C 460.007 145.265, 462.433 147.117, 464.796 148.935 C 467.159 150.753, 469.298 152.036, 469.549 151.785 C 469.800 151.534, 469.104 148.709, 468.003 145.508 C 466.901 142.306, 466 139.386, 466 139.018 C 466 138.651, 468.443 136.584, 471.429 134.425 L 476.858 130.500 469.731 130 L 462.604 129.500 460.610 123.250 C 459.512 119.813, 458.338 117, 458 117 C 457.662 117, 456.488 119.813, 455.391 123.250 M 51.382 213.515 L 49.525 220 42.012 220.032 L 34.500 220.063 37.133 222.282 C 38.581 223.502, 41.242 225.642, 43.046 227.038 L 46.327 229.577 44.170 235.962 C 42.984 239.474, 42.145 242.479, 42.306 242.639 C 42.466 242.800, 45.165 241.109, 48.303 238.883 L 54.008 234.836 58.754 238.259 C 61.364 240.142, 64.022 241.980, 64.661 242.345 C 65.349 242.738, 64.949 240.323, 63.675 236.405 L 61.528 229.803 64.065 227.651 C 65.460 226.468, 68.154 224.284, 70.051 222.797 L 73.500 220.094 65.908 220.047 L 58.317 220 56.486 213.952 C 55.478 210.626, 54.336 207.708, 53.947 207.467 C 53.558 207.227, 52.404 209.948, 51.382 213.515 M 132.392 213.244 L 130.396 219.500 122.948 220 L 115.500 220.500 121.250 224.870 C 124.412 227.274, 126.997 229.299, 126.992 229.370 C 126.988 229.442, 126.102 232.402, 125.024 235.948 C 123.946 239.495, 123.196 242.530, 123.359 242.692 C 123.522 242.855, 126.064 241.191, 129.008 238.994 C 131.952 236.797, 134.577 235, 134.840 235 C 135.103 235, 137.702 236.800, 140.616 239 C 143.530 241.200, 146.132 243, 146.398 243 C 146.663 243, 145.829 239.906, 144.542 236.125 L 142.204 229.250 148.352 224.875 L 154.500 220.500 146.766 220.208 L 139.032 219.916 137.405 214.208 C 136.510 211.069, 135.466 208.160, 135.084 207.744 C 134.701 207.329, 133.490 209.804, 132.392 213.244 M 213.234 213.250 L 211.397 219.500 204.198 219.794 C 200.239 219.955, 197.001 220.405, 197.002 220.794 C 197.003 221.182, 199.282 223.053, 202.067 224.951 C 204.852 226.849, 207.320 228.709, 207.552 229.084 C 207.783 229.459, 207.079 232.364, 205.987 235.539 C 204.894 238.715, 204 241.721, 204 242.220 C 204 242.719, 206.682 241.247, 209.959 238.948 L 215.918 234.767 220.209 238.069 C 222.569 239.885, 225.137 241.850, 225.916 242.435 C 227.473 243.607, 227.350 242.811, 224.586 233.842 L 223.151 229.184 229.325 224.842 L 235.500 220.500 227.818 220.209 L 220.136 219.918 217.986 213.459 C 216.804 209.907, 215.665 207, 215.454 207 C 215.244 207, 214.245 209.813, 213.234 213.250 M 294.035 213.395 L 291.864 219.918 284.318 220.209 L 276.772 220.500 282.804 224.864 L 288.836 229.228 287.407 233.864 C 284.650 242.808, 284.527 243.606, 286.084 242.435 C 286.863 241.850, 289.446 239.873, 291.825 238.042 L 296.151 234.713 302.075 238.891 C 305.334 241.189, 308 242.674, 308 242.191 C 308 241.708, 307.106 238.715, 306.013 235.539 C 304.921 232.364, 304.217 229.459, 304.448 229.084 C 304.680 228.709, 307.148 226.849, 309.933 224.951 C 312.718 223.053, 314.997 221.182, 314.998 220.794 C 314.999 220.405, 311.763 219.955, 307.806 219.794 L 300.613 219.500 298.882 213.659 C 297.930 210.446, 296.938 207.605, 296.678 207.345 C 296.418 207.085, 295.229 209.808, 294.035 213.395 M 376.804 207.551 C 376.497 208.073, 375.508 211.069, 374.607 214.208 L 372.968 219.916 365.234 220.208 L 357.500 220.500 363.662 224.833 L 369.824 229.166 367.472 236.083 C 366.178 239.887, 365.337 243, 365.602 243 C 365.868 243, 368.577 241.160, 371.621 238.910 L 377.157 234.821 383.079 238.974 C 386.335 241.259, 388.997 242.986, 388.992 242.814 C 388.988 242.641, 388.086 239.575, 386.987 236 L 384.989 229.500 387.745 227.206 C 389.260 225.944, 391.738 224.160, 393.250 223.240 C 394.762 222.321, 396 221.236, 396 220.828 C 396 220.421, 392.774 219.955, 388.832 219.794 L 381.664 219.500 379.514 213.051 C 378.331 209.504, 377.112 207.029, 376.804 207.551 M 457.249 209.059 C 456.669 210.466, 455.635 213.486, 454.951 215.770 L 453.707 219.921 446.104 220.211 L 438.500 220.500 444.212 224.500 C 447.354 226.700, 449.941 229.217, 449.962 230.093 C 449.983 230.970, 449.124 234.232, 448.054 237.343 C 446.983 240.455, 446.328 243, 446.597 243 C 446.866 243, 449.470 241.200, 452.384 239 C 455.298 236.800, 457.897 235, 458.160 235 C 458.423 235, 461.048 236.797, 463.992 238.994 C 466.936 241.191, 469.489 242.844, 469.666 242.668 C 469.842 242.491, 469.019 239.482, 467.836 235.980 L 465.686 229.613 469.042 227.057 C 470.888 225.650, 473.546 223.502, 474.949 222.282 L 477.500 220.063 470 220.025 L 462.500 219.988 460.402 213.244 C 458.426 206.895, 458.241 206.650, 457.249 209.059 M 51.374 304.300 L 49.396 310.500 41.948 311 L 34.500 311.500 40.238 315.500 C 43.394 317.700, 45.982 319.992, 45.988 320.593 C 45.995 321.195, 45.100 324.303, 44 327.500 C 42.900 330.697, 42 333.483, 42 333.691 C 42 333.899, 44.683 332.177, 47.963 329.864 L 53.926 325.658 59.927 329.868 L 65.927 334.077 64.436 329.288 C 61.432 319.641, 61.374 319.897, 67.579 315.500 L 73.224 311.500 65.758 311.211 L 58.293 310.921 56.474 304.913 C 55.473 301.608, 54.362 298.723, 54.004 298.502 C 53.646 298.281, 52.463 300.890, 51.374 304.300 M 132.374 304.300 L 130.396 310.500 123.014 311 L 115.633 311.500 121.390 315.838 C 124.556 318.224, 126.954 320.699, 126.719 321.338 C 124.809 326.528, 122.865 333.198, 123.171 333.505 C 123.378 333.711, 125.872 332.107, 128.714 329.940 C 131.555 327.773, 134.276 326, 134.760 326 C 135.243 326, 138.051 327.800, 141 330 C 143.949 332.200, 146.478 334, 146.621 334 C 146.764 334, 145.812 330.858, 144.506 327.018 L 142.131 320.036 148.224 315.768 L 154.317 311.500 146.805 311.211 L 139.293 310.921 137.474 304.913 C 136.473 301.608, 135.362 298.723, 135.004 298.502 C 134.646 298.281, 133.463 300.890, 132.374 304.300 M 213 304.500 L 210.837 311 203.668 311.032 L 196.500 311.063 199.133 313.282 C 200.581 314.502, 203.195 316.625, 204.941 318 L 208.115 320.500 206.058 326.407 C 204.926 329.655, 204 332.707, 204 333.188 C 204 333.669, 206.456 332.249, 209.457 330.032 C 212.459 327.814, 215.211 326, 215.573 326 C 215.936 326, 218.451 327.629, 221.163 329.620 C 223.875 331.610, 226.348 332.986, 226.658 332.676 C 226.968 332.366, 226.300 329.382, 225.173 326.046 L 223.125 319.981 229.146 315.740 L 235.168 311.500 227.652 311.209 L 220.136 310.918 217.986 304.459 C 216.804 300.907, 215.685 298, 215.500 298 C 215.315 298, 214.190 300.925, 213 304.500 M 294 304.500 L 291.837 311 284.231 311 L 276.625 311 282.733 315.540 L 288.842 320.079 286.810 326.095 C 285.693 329.405, 285.032 332.366, 285.342 332.676 C 285.652 332.986, 288.125 331.610, 290.837 329.620 C 293.549 327.629, 296.117 326, 296.543 326 C 296.969 326, 299.722 327.815, 302.659 330.032 C 305.597 332.250, 308 333.671, 308 333.189 C 308 332.707, 307.074 329.655, 305.942 326.407 L 303.885 320.500 307.059 318 C 308.805 316.625, 311.419 314.502, 312.867 313.282 L 315.500 311.063 308.332 311.032 L 301.163 311 299 304.500 C 297.810 300.925, 296.685 298, 296.500 298 C 296.315 298, 295.190 300.925, 294 304.500 M 376.216 300.059 C 375.654 301.466, 374.635 304.486, 373.951 306.770 L 372.707 310.921 365.270 311.211 L 357.832 311.500 363.859 315.744 L 369.885 319.988 367.493 327.022 C 366.087 331.154, 365.595 333.757, 366.300 333.330 C 366.960 332.931, 369.579 331.118, 372.119 329.302 C 374.660 327.486, 377.042 326, 377.412 326 C 377.782 326, 380.541 327.814, 383.543 330.032 C 386.544 332.249, 389 333.669, 389 333.188 C 389 332.707, 388.100 329.697, 387 326.500 C 385.900 323.303, 385 320.547, 385 320.376 C 385 320.205, 387.558 318.138, 390.684 315.782 L 396.367 311.500 389.014 311 L 381.661 310.500 379.449 304 C 377.360 297.861, 377.180 297.642, 376.216 300.059 M 457.216 300.059 C 456.654 301.466, 455.635 304.486, 454.951 306.770 L 453.707 310.921 446.159 311.211 L 438.610 311.500 444.305 315.416 C 447.437 317.570, 450 319.862, 450 320.510 C 450 321.157, 449.099 324.306, 447.997 327.508 C 446.896 330.709, 446.143 333.477, 446.325 333.658 C 446.506 333.840, 449.064 332.191, 452.008 329.994 C 454.952 327.797, 457.757 326, 458.240 326 C 458.724 326, 461.445 327.773, 464.286 329.940 C 467.128 332.107, 469.577 333.756, 469.729 333.604 C 469.881 333.452, 469.104 330.709, 468.003 327.508 C 466.901 324.306, 466.017 321.195, 466.038 320.593 C 466.059 319.992, 468.646 317.700, 471.788 315.500 L 477.500 311.500 470.080 311 L 462.661 310.500 460.449 304 C 458.360 297.861, 458.180 297.642, 457.216 300.059" stroke="none" fill="#002164" fill-rule="evenodd"/><path d="M 132.362 31.750 L 130.436 38.500 123.102 39 L 115.768 39.500 121.362 43.500 C 124.439 45.700, 126.967 47.767, 126.978 48.093 C 126.990 48.420, 126.100 51.303, 125 54.500 C 123.900 57.697, 123 60.707, 123 61.189 C 123 61.671, 125.403 60.250, 128.341 58.032 C 131.278 55.815, 134.130 54, 134.678 54 C 135.226 54, 138.202 55.810, 141.291 58.022 L 146.907 62.044 144.954 56.365 C 143.879 53.242, 143 49.944, 143 49.036 C 143 48.127, 145.570 45.498, 148.711 43.192 L 154.421 39 146.907 39 L 139.394 39 137.139 32 C 135.899 28.150, 134.750 25, 134.586 25 C 134.422 25, 133.421 28.038, 132.362 31.750 M 213.153 31.957 L 210.912 38.914 203.723 39.207 L 196.534 39.500 202.017 43.438 C 205.033 45.604, 207.621 47.450, 207.768 47.540 C 207.916 47.630, 207.147 50.563, 206.059 54.059 C 204.971 57.554, 204.253 60.586, 204.463 60.796 C 204.673 61.006, 207.255 59.397, 210.200 57.221 L 215.556 53.265 221.010 57.188 C 224.009 59.346, 226.591 60.727, 226.747 60.258 C 226.904 59.789, 226.145 56.829, 225.062 53.680 L 223.092 47.956 229.246 43.478 L 235.400 39 227.742 39 L 220.085 39 218 32 C 216.853 28.150, 215.798 25, 215.654 25 C 215.511 25, 214.385 28.131, 213.153 31.957 M 294.099 31.750 L 291.915 39 284.348 39 L 276.780 39 282.838 43.460 L 288.896 47.919 286.837 54.016 C 285.705 57.369, 285.022 60.356, 285.321 60.654 C 285.619 60.952, 288.223 59.396, 291.107 57.196 L 296.352 53.197 301.754 57.187 C 304.725 59.382, 307.327 61.006, 307.537 60.796 C 307.747 60.586, 307.029 57.554, 305.941 54.059 C 304.853 50.563, 304.084 47.630, 304.232 47.540 C 304.379 47.450, 306.967 45.604, 309.983 43.438 L 315.466 39.500 308.302 39.208 L 301.138 38.915 298.711 31.708 L 296.283 24.500 294.099 31.750 M 374.981 31.750 L 372.606 39 365.053 39 L 357.500 39 363.250 43.079 C 366.536 45.410, 369 47.914, 369 48.923 C 369 49.893, 368.119 53.248, 367.042 56.378 L 365.084 62.069 370.835 58.034 C 373.999 55.815, 376.957 54, 377.409 54 C 377.862 54, 380.451 55.629, 383.163 57.620 C 385.875 59.610, 388.295 61.039, 388.540 60.793 C 388.785 60.548, 388.031 57.519, 386.864 54.063 C 385.633 50.418, 385.131 47.509, 385.669 47.139 C 386.179 46.788, 388.824 44.925, 391.548 43 L 396.500 39.500 389.063 39 L 381.626 38.500 379.491 31.500 L 377.355 24.500 374.981 31.750 M 51.390 32.250 L 49.396 38.500 41.999 39 L 34.602 39.500 40.301 43.416 C 43.435 45.570, 46 47.668, 46 48.077 C 46 48.487, 45.106 51.674, 44.013 55.161 C 42.920 58.647, 42.020 61.627, 42.013 61.782 C 42.006 61.936, 44.456 60.249, 47.457 58.032 C 50.459 55.814, 53.411 54, 54.017 54 C 54.623 54, 57.445 55.773, 60.286 57.940 C 63.128 60.107, 65.577 61.756, 65.729 61.604 C 65.881 61.452, 65.104 58.709, 64.003 55.508 C 62.901 52.306, 62 49.137, 62 48.465 C 62 47.793, 64.534 45.501, 67.630 43.372 L 73.261 39.500 65.743 39.210 L 58.225 38.920 56.375 32.460 C 55.358 28.907, 54.269 26, 53.955 26 C 53.642 26, 52.488 28.813, 51.390 32.250 M 455.614 32.500 L 453.752 39 446.165 39 L 438.579 39 444.289 43.192 C 447.430 45.498, 450 47.902, 450 48.536 C 450 49.169, 449.100 52.303, 448 55.500 C 446.900 58.697, 446 61.492, 446 61.712 C 446 61.931, 448.548 60.285, 451.663 58.055 C 454.777 55.825, 457.774 54, 458.322 54 C 458.870 54, 461.797 55.872, 464.827 58.159 C 468.122 60.647, 470.075 61.637, 469.685 60.622 C 467.519 54.976, 465.906 47.669, 466.706 47.125 C 467.212 46.781, 469.791 44.925, 472.437 43 L 477.249 39.500 469.927 39 L 462.604 38.500 460.610 32.250 C 459.512 28.813, 458.358 26, 458.045 26 C 457.731 26, 456.637 28.925, 455.614 32.500 M 512 78 L 512 104 896 104 L 1280 104 1280 78 L 1280 52 896 52 L 512 52 512 78 M 132.132 123.023 L 129.885 130 122.762 130 L 115.639 130 121.069 134.045 C 124.056 136.269, 126.620 138.428, 126.766 138.842 C 126.912 139.256, 126.123 142.235, 125.013 145.462 C 123.903 148.688, 123.200 151.534, 123.451 151.785 C 123.702 152.036, 125.841 150.753, 128.204 148.935 C 130.567 147.117, 132.993 145.265, 133.595 144.821 C 134.246 144.340, 136.986 145.656, 140.345 148.061 C 146.478 152.453, 146.995 152.072, 144.500 145 C 143.675 142.662, 143 140.168, 143 139.459 C 143 138.750, 145.357 136.445, 148.237 134.335 L 153.474 130.500 146.490 130 L 139.506 129.500 137.207 123.038 C 135.943 119.483, 134.789 116.456, 134.644 116.310 C 134.498 116.165, 133.368 119.185, 132.132 123.023 M 213.153 122.957 L 210.912 129.914 203.761 130.207 L 196.609 130.500 202.339 134.440 C 205.490 136.607, 207.894 138.857, 207.680 139.440 C 205.726 144.772, 203.872 151.206, 204.197 151.530 C 204.417 151.751, 207.082 150.169, 210.118 148.015 L 215.639 144.098 221.319 148.128 C 224.444 150.345, 227 151.743, 227 151.236 C 227 150.728, 226.096 147.684, 224.990 144.472 C 223.885 141.259, 223.344 138.376, 223.788 138.065 C 224.233 137.754, 226.824 135.925, 229.548 134 L 234.500 130.500 227.434 130.210 L 220.368 129.920 218.126 122.960 C 216.893 119.132, 215.774 116, 215.639 116 C 215.504 116, 214.385 119.131, 213.153 122.957 M 293.968 122.710 L 291.632 129.920 284.695 130.210 L 277.758 130.500 282.566 134 C 285.211 135.925, 287.744 137.754, 288.197 138.065 C 288.649 138.376, 288.108 141.279, 286.994 144.518 C 285.880 147.756, 285.094 150.783, 285.248 151.244 C 285.402 151.705, 287.950 150.276, 290.911 148.067 L 296.294 144.050 301.848 147.991 C 304.903 150.158, 307.583 151.751, 307.803 151.530 C 308.128 151.206, 306.274 144.772, 304.320 139.440 C 304.106 138.857, 306.510 136.607, 309.661 134.440 L 315.391 130.500 308.265 130.208 L 301.138 129.915 298.722 122.708 L 296.305 115.500 293.968 122.710 M 374.936 122.557 L 372.500 129.500 365.520 130 L 358.540 130.500 363.770 134.248 C 366.646 136.310, 369 138.616, 369 139.373 C 369 140.129, 368.325 142.662, 367.500 145 C 364.986 152.124, 365.501 152.512, 371.663 148.141 L 377.326 144.123 382.828 148.063 C 385.854 150.230, 388.482 151.851, 388.668 151.666 C 388.853 151.480, 388.104 148.709, 387.003 145.508 C 385.901 142.306, 385 139.362, 385 138.965 C 385 138.568, 387.534 136.501, 390.631 134.372 L 396.262 130.500 389.200 130.208 L 382.138 129.915 379.755 122.765 L 377.371 115.614 374.936 122.557 M 51.389 123.250 L 49.393 129.500 42.014 129.798 L 34.634 130.095 40.317 134.127 C 43.443 136.344, 46 138.502, 46 138.923 C 46 139.343, 45.099 142.306, 43.997 145.508 C 42.896 148.709, 42.186 151.519, 42.420 151.753 C 42.653 151.987, 45.355 150.323, 48.423 148.057 L 54.001 143.936 59.341 147.968 C 62.279 150.186, 64.954 152, 65.287 152 C 65.620 152, 65.017 149.455, 63.946 146.343 C 62.876 143.232, 62 140.107, 62 139.398 C 62 138.690, 64.519 136.306, 67.599 134.101 L 73.198 130.092 65.902 129.796 L 58.607 129.500 56.611 123.250 C 55.513 119.813, 54.338 117, 54 117 C 53.662 117, 52.487 119.813, 51.389 123.250 M 455.391 123.250 L 453.396 129.500 446.461 130 L 439.526 130.500 444.763 134.335 C 447.643 136.445, 450 138.737, 450 139.429 C 450 140.121, 449.124 143.232, 448.054 146.343 C 446.983 149.455, 446.343 152, 446.631 152 C 446.918 152, 449.664 150.203, 452.731 148.006 C 456.043 145.634, 458.754 144.340, 459.405 144.821 C 460.007 145.265, 462.433 147.117, 464.796 148.935 C 467.159 150.753, 469.298 152.036, 469.549 151.785 C 469.800 151.534, 469.104 148.709, 468.003 145.508 C 466.901 142.306, 466 139.386, 466 139.018 C 466 138.651, 468.443 136.584, 471.429 134.425 L 476.858 130.500 469.731 130 L 462.604 129.500 460.610 123.250 C 459.512 119.813, 458.338 117, 458 117 C 457.662 117, 456.488 119.813, 455.391 123.250 M 512 181.500 L 512 207 896 207 L 1280 207 1280 181.500 L 1280 156 896 156 L 512 156 512 181.500 M 51.382 213.515 L 49.525 220 42.012 220.032 L 34.500 220.063 37.133 222.282 C 38.581 223.502, 41.242 225.642, 43.046 227.038 L 46.327 229.577 44.170 235.962 C 42.984 239.474, 42.145 242.479, 42.306 242.639 C 42.466 242.800, 45.165 241.109, 48.303 238.883 L 54.008 234.836 58.754 238.259 C 61.364 240.142, 64.022 241.980, 64.661 242.345 C 65.349 242.738, 64.949 240.323, 63.675 236.405 L 61.528 229.803 64.065 227.651 C 65.460 226.468, 68.154 224.284, 70.051 222.797 L 73.500 220.094 65.908 220.047 L 58.317 220 56.486 213.952 C 55.478 210.626, 54.336 207.708, 53.947 207.467 C 53.558 207.227, 52.404 209.948, 51.382 213.515 M 132.392 213.244 L 130.396 219.500 122.948 220 L 115.500 220.500 121.250 224.870 C 124.412 227.274, 126.997 229.299, 126.992 229.370 C 126.988 229.442, 126.102 232.402, 125.024 235.948 C 123.946 239.495, 123.196 242.530, 123.359 242.692 C 123.522 242.855, 126.064 241.191, 129.008 238.994 C 131.952 236.797, 134.577 235, 134.840 235 C 135.103 235, 137.702 236.800, 140.616 239 C 143.530 241.200, 146.132 243, 146.398 243 C 146.663 243, 145.829 239.906, 144.542 236.125 L 142.204 229.250 148.352 224.875 L 154.500 220.500 146.766 220.208 L 139.032 219.916 137.405 214.208 C 136.510 211.069, 135.466 208.160, 135.084 207.744 C 134.701 207.329, 133.490 209.804, 132.392 213.244 M 213.234 213.250 L 211.397 219.500 204.198 219.794 C 200.239 219.955, 197.001 220.405, 197.002 220.794 C 197.003 221.182, 199.282 223.053, 202.067 224.951 C 204.852 226.849, 207.320 228.709, 207.552 229.084 C 207.783 229.459, 207.079 232.364, 205.987 235.539 C 204.894 238.715, 204 241.721, 204 242.220 C 204 242.719, 206.682 241.247, 209.959 238.948 L 215.918 234.767 220.209 238.069 C 222.569 239.885, 225.137 241.850, 225.916 242.435 C 227.473 243.607, 227.350 242.811, 224.586 233.842 L 223.151 229.184 229.325 224.842 L 235.500 220.500 227.818 220.209 L 220.136 219.918 217.986 213.459 C 216.804 209.907, 215.665 207, 215.454 207 C 215.244 207, 214.245 209.813, 213.234 213.250 M 294.035 213.395 L 291.864 219.918 284.318 220.209 L 276.772 220.500 282.804 224.864 L 288.836 229.228 287.407 233.864 C 284.650 242.808, 284.527 243.606, 286.084 242.435 C 286.863 241.850, 289.446 239.873, 291.825 238.042 L 296.151 234.713 302.075 238.891 C 305.334 241.189, 308 242.674, 308 242.191 C 308 241.708, 307.106 238.715, 306.013 235.539 C 304.921 232.364, 304.217 229.459, 304.448 229.084 C 304.680 228.709, 307.148 226.849, 309.933 224.951 C 312.718 223.053, 314.997 221.182, 314.998 220.794 C 314.999 220.405, 311.763 219.955, 307.806 219.794 L 300.613 219.500 298.882 213.659 C 297.930 210.446, 296.938 207.605, 296.678 207.345 C 296.418 207.085, 295.229 209.808, 294.035 213.395 M 376.804 207.551 C 376.497 208.073, 375.508 211.069, 374.607 214.208 L 372.968 219.916 365.234 220.208 L 357.500 220.500 363.662 224.833 L 369.824 229.166 367.472 236.083 C 366.178 239.887, 365.337 243, 365.602 243 C 365.868 243, 368.577 241.160, 371.621 238.910 L 377.157 234.821 383.079 238.974 C 386.335 241.259, 388.997 242.986, 388.992 242.814 C 388.988 242.641, 388.086 239.575, 386.987 236 L 384.989 229.500 387.745 227.206 C 389.260 225.944, 391.738 224.160, 393.250 223.240 C 394.762 222.321, 396 221.236, 396 220.828 C 396 220.421, 392.774 219.955, 388.832 219.794 L 381.664 219.500 379.514 213.051 C 378.331 209.504, 377.112 207.029, 376.804 207.551 M 457.249 209.059 C 456.669 210.466, 455.635 213.486, 454.951 215.770 L 453.707 219.921 446.104 220.211 L 438.500 220.500 444.212 224.500 C 447.354 226.700, 449.941 229.217, 449.962 230.093 C 449.983 230.970, 449.124 234.232, 448.054 237.343 C 446.983 240.455, 446.328 243, 446.597 243 C 446.866 243, 449.470 241.200, 452.384 239 C 455.298 236.800, 457.897 235, 458.160 235 C 458.423 235, 461.048 236.797, 463.992 238.994 C 466.936 241.191, 469.489 242.844, 469.666 242.668 C 469.842 242.491, 469.019 239.482, 467.836 235.980 L 465.686 229.613 469.042 227.057 C 470.888 225.650, 473.546 223.502, 474.949 222.282 L 477.500 220.063 470 220.025 L 462.500 219.988 460.402 213.244 C 458.426 206.895, 458.241 206.650, 457.249 209.059 M 512 285 L 512 311 896 311 L 1280 311 1280 285 L 1280 259 896 259 L 512 259 512 285 M 51.374 304.300 L 49.396 310.500 41.948 311 L 34.500 311.500 40.238 315.500 C 43.394 317.700, 45.982 319.992, 45.988 320.593 C 45.995 321.195, 45.100 324.303, 44 327.500 C 42.900 330.697, 42 333.483, 42 333.691 C 42 333.899, 44.683 332.177, 47.963 329.864 L 53.926 325.658 59.927 329.868 L 65.927 334.077 64.436 329.288 C 61.432 319.641, 61.374 319.897, 67.579 315.500 L 73.224 311.500 65.758 311.211 L 58.293 310.921 56.474 304.913 C 55.473 301.608, 54.362 298.723, 54.004 298.502 C 53.646 298.281, 52.463 300.890, 51.374 304.300 M 132.374 304.300 L 130.396 310.500 123.014 311 L 115.633 311.500 121.390 315.838 C 124.556 318.224, 126.954 320.699, 126.719 321.338 C 124.809 326.528, 122.865 333.198, 123.171 333.505 C 123.378 333.711, 125.872 332.107, 128.714 329.940 C 131.555 327.773, 134.276 326, 134.760 326 C 135.243 326, 138.051 327.800, 141 330 C 143.949 332.200, 146.478 334, 146.621 334 C 146.764 334, 145.812 330.858, 144.506 327.018 L 142.131 320.036 148.224 315.768 L 154.317 311.500 146.805 311.211 L 139.293 310.921 137.474 304.913 C 136.473 301.608, 135.362 298.723, 135.004 298.502 C 134.646 298.281, 133.463 300.890, 132.374 304.300 M 213 304.500 L 210.837 311 203.668 311.032 L 196.500 311.063 199.133 313.282 C 200.581 314.502, 203.195 316.625, 204.941 318 L 208.115 320.500 206.058 326.407 C 204.926 329.655, 204 332.707, 204 333.188 C 204 333.669, 206.456 332.249, 209.457 330.032 C 212.459 327.814, 215.211 326, 215.573 326 C 215.936 326, 218.451 327.629, 221.163 329.620 C 223.875 331.610, 226.348 332.986, 226.658 332.676 C 226.968 332.366, 226.300 329.382, 225.173 326.046 L 223.125 319.981 229.146 315.740 L 235.168 311.500 227.652 311.209 L 220.136 310.918 217.986 304.459 C 216.804 300.907, 215.685 298, 215.500 298 C 215.315 298, 214.190 300.925, 213 304.500 M 294 304.500 L 291.837 311 284.231 311 L 276.625 311 282.733 315.540 L 288.842 320.079 286.810 326.095 C 285.693 329.405, 285.032 332.366, 285.342 332.676 C 285.652 332.986, 288.125 331.610, 290.837 329.620 C 293.549 327.629, 296.117 326, 296.543 326 C 296.969 326, 299.722 327.815, 302.659 330.032 C 305.597 332.250, 308 333.671, 308 333.189 C 308 332.707, 307.074 329.655, 305.942 326.407 L 303.885 320.500 307.059 318 C 308.805 316.625, 311.419 314.502, 312.867 313.282 L 315.500 311.063 308.332 311.032 L 301.163 311 299 304.500 C 297.810 300.925, 296.685 298, 296.500 298 C 296.315 298, 295.190 300.925, 294 304.500 M 376.216 300.059 C 375.654 301.466, 374.635 304.486, 373.951 306.770 L 372.707 310.921 365.270 311.211 L 357.832 311.500 363.859 315.744 L 369.885 319.988 367.493 327.022 C 366.087 331.154, 365.595 333.757, 366.300 333.330 C 366.960 332.931, 369.579 331.118, 372.119 329.302 C 374.660 327.486, 377.042 326, 377.412 326 C 377.782 326, 380.541 327.814, 383.543 330.032 C 386.544 332.249, 389 333.669, 389 333.188 C 389 332.707, 388.100 329.697, 387 326.500 C 385.900 323.303, 385 320.547, 385 320.376 C 385 320.205, 387.558 318.138, 390.684 315.782 L 396.367 311.500 389.014 311 L 381.661 310.500 379.449 304 C 377.360 297.861, 377.180 297.642, 376.216 300.059 M 457.216 300.059 C 456.654 301.466, 455.635 304.486, 454.951 306.770 L 453.707 310.921 446.159 311.211 L 438.610 311.500 444.305 315.416 C 447.437 317.570, 450 319.862, 450 320.510 C 450 321.157, 449.099 324.306, 447.997 327.508 C 446.896 330.709, 446.143 333.477, 446.325 333.658 C 446.506 333.840, 449.064 332.191, 452.008 329.994 C 454.952 327.797, 457.757 326, 458.240 326 C 458.724 326, 461.445 327.773, 464.286 329.940 C 467.128 332.107, 469.577 333.756, 469.729 333.604 C 469.881 333.452, 469.104 330.709, 468.003 327.508 C 466.901 324.306, 466.017 321.195, 466.038 320.593 C 466.059 319.992, 468.646 317.700, 471.788 315.500 L 477.500 311.500 470.080 311 L 462.661 310.500 460.449 304 C 458.360 297.861, 458.180 297.642, 457.216 300.059 M 0 389.002 L 0 415.002 640.250 414.751 L 1280.500 414.500 1280.766 388.500 L 1281.032 362.500 640.516 362.752 L 0 363.003 0 389.002 M 0.437 389 C 0.437 403.575, 0.577 409.538, 0.747 402.250 C 0.918 394.962, 0.918 383.038, 0.747 375.750 C 0.577 368.462, 0.437 374.425, 0.437 389 M 0 492.502 L 0 518.002 640.250 517.751 L 1280.500 517.500 1280.766 492 L 1281.033 466.500 640.516 466.752 L 0 467.003 0 492.502 M 0.436 492.500 C 0.436 506.800, 0.577 512.511, 0.748 505.191 C 0.919 497.871, 0.918 486.171, 0.747 479.191 C 0.575 472.211, 0.435 478.200, 0.436 492.500 M 0 596.002 L 0 622.002 640.250 621.751 L 1280.500 621.500 1280.766 595.500 L 1281.032 569.500 640.516 569.752 L 0 570.003 0 596.002 M 0.437 596 C 0.437 610.575, 0.577 616.538, 0.747 609.250 C 0.918 601.962, 0.918 590.038, 0.747 582.750 C 0.577 575.462, 0.437 581.425, 0.437 596" stroke="none" fill="#fbfbfb" fill-rule="evenodd"/><path d="M 512 26 L 512 52 896 52 L 1280 52 1280 26 L 1280 0 896 0 L 512 0 512 26 M 512 130 L 512 156 896 156 L 1280 156 1280 130 L 1280 104 896 104 L 512 104 512 130 M 512 233 L 512 259 896 259 L 1280 259 1280 233 L 1280 207 896 207 L 512 207 512 233 M 512 337 L 512 363 896 363 L 1280 363 1280 337 L 1280 311 896 311 L 512 311 512 337 M 0 441.002 L 0 467.002 640.250 466.751 L 1280.500 466.500 1280.766 440.500 L 1281.032 414.500 640.516 414.752 L 0 415.003 0 441.002 M 0.437 441 C 0.437 455.575, 0.577 461.538, 0.747 454.250 C 0.918 446.962, 0.918 435.038, 0.747 427.750 C 0.577 420.462, 0.437 426.425, 0.437 441 M 0 544.002 L 0 570.002 640.250 569.751 L 1280.500 569.500 1280.766 543.500 L 1281.032 517.500 640.516 517.752 L 0 518.003 0 544.002 M 0.437 544 C 0.437 558.575, 0.577 564.538, 0.747 557.250 C 0.918 549.962, 0.918 538.038, 0.747 530.750 C 0.577 523.462, 0.437 529.425, 0.437 544 M 0 648.002 L 0 674.002 640.250 673.751 L 1280.500 673.500 1280.766 647.500 L 1281.032 621.500 640.516 621.752 L 0 622.003 0 648.002 M 0.437 648 C 0.437 662.575, 0.577 668.538, 0.747 661.250 C 0.918 653.962, 0.918 642.038, 0.747 634.750 C 0.577 627.462, 0.437 633.425, 0.437 648" stroke="none" fill="#bc0d3d" fill-rule="evenodd"/></svg>