<svg xmlns="http://www.w3.org/2000/svg" width="50" height="50" viewBox="0 0 800 582" version="1.1"><path d="M -0 100.004 L -0 145.002 400.250 144.751 L 800.500 144.500 800.760 99.500 L 801.020 54.500 400.510 54.752 L 0 55.005 -0 100.004 M 0.461 100 C 0.461 125.025, 0.590 135.263, 0.749 122.750 C 0.908 110.238, 0.908 89.763, 0.749 77.250 C 0.590 64.738, 0.461 74.975, 0.461 100 M 381.555 196.988 L 363.704 227.976 327.462 228.238 L 291.220 228.500 309.104 259.500 C 318.940 276.550, 326.988 290.725, 326.988 291 C 326.988 291.275, 318.940 305.450, 309.104 322.500 L 291.220 353.500 327.462 353.762 L 363.704 354.024 381.555 385.012 C 391.373 402.055, 399.674 416, 400 416 C 400.326 416, 408.627 402.055, 418.445 385.012 L 436.296 354.024 472.538 353.762 L 508.780 353.500 490.896 322.500 C 481.060 305.450, 473.009 291.269, 473.006 290.986 C 473.003 290.703, 481.053 276.528, 490.896 259.486 L 508.792 228.500 472.544 228.238 L 436.296 227.976 418.445 196.988 C 408.627 179.945, 400.326 166, 400 166 C 399.674 166, 391.373 179.945, 381.555 196.988 M 393.176 216.750 L 386.996 227.500 393.498 227.796 C 397.074 227.958, 402.922 227.958, 406.493 227.796 L 412.987 227.500 406.778 216.750 C 403.363 210.838, 400.296 206, 399.963 206 C 399.629 206, 396.575 210.838, 393.176 216.750 M 326 248.401 C 326 249.420, 338.245 270, 338.851 270 C 339.229 270, 340.988 267.413, 342.759 264.250 C 344.531 261.087, 347.372 256.137, 349.073 253.250 L 352.165 248 339.083 248 C 331.887 248, 326 248.180, 326 248.401 M 363.082 268.940 C 356.437 280.456, 351 290.383, 351 291 C 351 291.617, 356.437 301.544, 363.082 313.060 L 375.164 334 400 334 L 424.836 334 436.918 313.060 C 443.563 301.544, 449 291.617, 449 291 C 449 290.383, 443.563 280.456, 436.918 268.940 L 424.836 248 400 248 L 375.164 248 363.082 268.940 M 450.927 253.250 C 452.628 256.137, 455.469 261.087, 457.241 264.250 C 459.012 267.413, 460.771 270, 461.149 270 C 461.755 270, 474 249.420, 474 248.401 C 474 248.180, 468.113 248, 460.917 248 L 447.835 248 450.927 253.250 M 332.057 322.642 C 328.699 328.495, 326.126 333.459, 326.340 333.673 C 326.554 333.887, 332.387 333.935, 339.304 333.781 L 351.879 333.500 345.690 322.769 C 342.285 316.866, 339.199 312.029, 338.832 312.019 C 338.464 312.008, 335.416 316.789, 332.057 322.642 M 454.310 322.769 L 448.121 333.500 460.696 333.781 C 467.613 333.935, 473.446 333.887, 473.660 333.673 C 474.196 333.138, 461.999 311.995, 461.168 312.019 C 460.801 312.029, 457.715 316.866, 454.310 322.769 M 389.225 358.250 C 395.952 370.184, 399.482 376, 400 376 C 400.518 376, 404.048 370.184, 410.775 358.250 L 413.171 354 400 354 L 386.829 354 389.225 358.250 M -0 482.004 L -0 527.002 400.250 526.751 L 800.500 526.500 800.760 481.500 L 801.020 436.500 400.510 436.752 L 0 437.005 -0 482.004 M 0.461 482 C 0.461 507.025, 0.590 517.263, 0.749 504.750 C 0.908 492.238, 0.908 471.763, 0.749 459.250 C 0.590 446.738, 0.461 456.975, 0.461 482" stroke="none" fill="#0434bc" fill-rule="evenodd"/><path d="M 0 27.501 L 0 55.002 400.250 54.751 L 800.500 54.500 800.766 27.250 L 801.032 -0 400.516 -0 L 0 0 0 27.501 M 0.439 28 C 0.439 43.125, 0.578 49.313, 0.748 41.750 C 0.917 34.188, 0.917 21.813, 0.748 14.250 C 0.578 6.688, 0.439 12.875, 0.439 28 M 0 291.004 L 0 437.002 400.250 436.751 L 800.500 436.500 800.753 290.500 L 801.007 144.500 400.503 144.752 L 0 145.005 0 291.004 M 0.487 291 C 0.487 371.575, 0.605 404.538, 0.750 364.250 C 0.895 323.963, 0.895 258.038, 0.750 217.750 C 0.605 177.463, 0.487 210.425, 0.487 291 M 381.555 196.988 L 363.704 227.976 327.462 228.238 L 291.220 228.500 309.104 259.500 C 318.940 276.550, 326.988 290.725, 326.988 291 C 326.988 291.275, 318.940 305.450, 309.104 322.500 L 291.220 353.500 327.462 353.762 L 363.704 354.024 381.555 385.012 C 391.373 402.055, 399.674 416, 400 416 C 400.326 416, 408.627 402.055, 418.445 385.012 L 436.296 354.024 472.538 353.762 L 508.780 353.500 490.896 322.500 C 481.060 305.450, 473.009 291.269, 473.006 290.986 C 473.003 290.703, 481.053 276.528, 490.896 259.486 L 508.792 228.500 472.544 228.238 L 436.296 227.976 418.445 196.988 C 408.627 179.945, 400.326 166, 400 166 C 399.674 166, 391.373 179.945, 381.555 196.988 M 393.176 216.750 L 386.996 227.500 393.498 227.796 C 397.074 227.958, 402.922 227.958, 406.493 227.796 L 412.987 227.500 406.778 216.750 C 403.363 210.838, 400.296 206, 399.963 206 C 399.629 206, 396.575 210.838, 393.176 216.750 M 326 248.401 C 326 249.420, 338.245 270, 338.851 270 C 339.229 270, 340.988 267.413, 342.759 264.250 C 344.531 261.087, 347.372 256.137, 349.073 253.250 L 352.165 248 339.083 248 C 331.887 248, 326 248.180, 326 248.401 M 363.082 268.940 C 356.437 280.456, 351 290.383, 351 291 C 351 291.617, 356.437 301.544, 363.082 313.060 L 375.164 334 400 334 L 424.836 334 436.918 313.060 C 443.563 301.544, 449 291.617, 449 291 C 449 290.383, 443.563 280.456, 436.918 268.940 L 424.836 248 400 248 L 375.164 248 363.082 268.940 M 450.927 253.250 C 452.628 256.137, 455.469 261.087, 457.241 264.250 C 459.012 267.413, 460.771 270, 461.149 270 C 461.755 270, 474 249.420, 474 248.401 C 474 248.180, 468.113 248, 460.917 248 L 447.835 248 450.927 253.250 M 332.057 322.642 C 328.699 328.495, 326.126 333.459, 326.340 333.673 C 326.554 333.887, 332.387 333.935, 339.304 333.781 L 351.879 333.500 345.690 322.769 C 342.285 316.866, 339.199 312.029, 338.832 312.019 C 338.464 312.008, 335.416 316.789, 332.057 322.642 M 454.310 322.769 L 448.121 333.500 460.696 333.781 C 467.613 333.935, 473.446 333.887, 473.660 333.673 C 474.196 333.138, 461.999 311.995, 461.168 312.019 C 460.801 312.029, 457.715 316.866, 454.310 322.769 M 389.225 358.250 C 395.952 370.184, 399.482 376, 400 376 C 400.518 376, 404.048 370.184, 410.775 358.250 L 413.171 354 400 354 L 386.829 354 389.225 358.250 M 0 554.504 L 0 582.002 400.250 581.751 L 800.500 581.500 800.765 554 L 801.031 526.500 400.515 526.752 L 0 527.005 0 554.504 M 0.440 554.500 C 0.440 569.900, 0.579 576.060, 0.748 568.189 C 0.917 560.319, 0.917 547.719, 0.747 540.189 C 0.578 532.660, 0.439 539.100, 0.440 554.500" stroke="none" fill="#fafafb" fill-rule="evenodd"/></svg>