<svg xmlns="http://www.w3.org/2000/svg" width="50" height="50" viewBox="0 0 900 600" version="1.1"><path d="M -0 500.003 L -0 600.002 450.250 599.751 L 900.500 599.500 900.755 499.500 L 901.010 399.500 450.505 399.752 L -0 400.004 -0 500.003 M 0.481 500 C 0.481 555.275, 0.602 577.887, 0.750 550.250 C 0.898 522.612, 0.898 477.387, 0.750 449.750 C 0.602 422.112, 0.481 444.725, 0.481 500" stroke="none" fill="#d52b1e" fill-rule="evenodd"/><path d="M -0 100.001 L -0 200.002 450.250 199.751 L 900.500 199.500 900.755 99.750 L 901.010 0 450.505 0 L 0 0 -0 100.001 M 0.481 100.500 C 0.481 155.500, 0.602 178.147, 0.750 150.826 C 0.898 123.506, 0.898 78.506, 0.750 50.826 C 0.602 23.147, 0.481 45.500, 0.481 100.500" stroke="none" fill="#fcfcfc" fill-rule="evenodd"/><path d="M -0 300.003 L -0 400.002 450.250 399.751 L 900.500 399.500 900.755 299.500 L 901.010 199.500 450.505 199.752 L -0 200.004 -0 300.003 M 0.481 300 C 0.481 355.275, 0.602 377.887, 0.750 350.250 C 0.898 322.612, 0.898 277.387, 0.750 249.750 C 0.602 222.112, 0.481 244.725, 0.481 300" stroke="none" fill="#043ca4" fill-rule="evenodd"/></svg>